<?xml version="1.0" encoding="utf-8"?>
<!-- Generator: Adobe Illustrator 25.4.1, SVG Export Plug-In . SVG Version: 6.00 Build 0)  -->
<svg version="1.1" id="Capa_1" xmlns="http://www.w3.org/2000/svg" xmlns:xlink="http://www.w3.org/1999/xlink" x="0px" y="0px"
	 viewBox="0 0 262.66 244.95" style="enable-background:new 0 0 262.66 244.95;" xml:space="preserve">
<style type="text/css">
	.st0{fill:#ED7D31;}
</style>
<text transform="matrix(1 0 0 1 1298.8495 -58.5781)" style="font-family:'ComicHunter'; font-size:100px;">AFINADO</text>
<text transform="matrix(1 0 0 1 1298.8495 38.4219)" style="font-family:'ComicHunter'; font-size:100px;">STORE</text>
<g>
	<g>
		<path class="st0" d="M238.7,44.94c-18.55-23.07-59.46-35.13-101.4-36.2l2.46,136.39c2.11,7.12,6.65,13.94,13.55,13.94
			c9.87,0,11.88-9.23,15.98-9.23c4.1,0,4.41,3.47,4.41,10.72s-9.14,16.39-9.14,29.32c0,8.96,13.02,15.75,21.02,29.6
			c4.92-6.65,10.02-14.11,15.33-22.39C226.92,156.58,268.96,82.57,238.7,44.94z"/>
		<path class="st0" d="M89.08,149c4.97-12.92,20.79-16.76,31.9-17.91l2.39-122.3c-41.3,1.36-81.3,13.4-99.6,36.15
			C-6.49,82.57,35.55,156.57,61.55,197.09c5.39,8.4,10.56,15.96,15.54,22.69c8.01-15.55,20.81-24.68,20.81-31.83
			C97.9,177.55,82.77,165.39,89.08,149z"/>
	</g>
	<circle class="st0" cx="105.06" cy="156.75" r="4.92"/>
	<path class="st0" d="M138.44,188.48h-18.46c-1.72,0-3.11-1.39-3.11-3.11v-2.01c0-1.72,1.39-3.11,3.11-3.11h18.46
		c1.72,0,3.11,1.39,3.11,3.11v2.01C141.55,187.09,140.15,188.48,138.44,188.48z"/>
	<path class="st0" d="M138.44,202.32h-18.46c-1.72,0-3.11-1.39-3.11-3.11v-2.01c0-1.72,1.39-3.11,3.11-3.11h18.46
		c1.72,0,3.11,1.39,3.11,3.11v2.01C141.55,200.92,140.15,202.32,138.44,202.32z"/>
	<path class="st0" d="M138.44,216.15h-18.46c-1.72,0-3.11-1.39-3.11-3.11v-2.01c0-1.72,1.39-3.11,3.11-3.11h18.46
		c1.72,0,3.11,1.39,3.11,3.11v2.01C141.55,214.76,140.15,216.15,138.44,216.15z"/>
</g>
</svg>
