<?xml version="1.0" encoding="utf-8"?>
<!-- Generator: Adobe Illustrator 25.4.1, SVG Export Plug-In . SVG Version: 6.00 Build 0)  -->
<svg version="1.1" id="Capa_1" xmlns="http://www.w3.org/2000/svg" xmlns:xlink="http://www.w3.org/1999/xlink" x="0px" y="0px"
	 viewBox="0 0 967.66 244.95" style="enable-background:new 0 0 967.66 244.95;" xml:space="preserve">
<style type="text/css">
	.st0{fill:#ED7D31;}
	.st1{fill:none;}
	.st2{fill:#4F4A45;}
	.st3{fill:#F6F1EE;}
	.st4{enable-background:new    ;}
	.st5{fill:#7C7975;}
</style>
<text transform="matrix(1 0 0 1 1298.8495 -58.5781)" style="font-family:'ComicHunter'; font-size:100px;">AFINADO</text>
<text transform="matrix(1 0 0 1 1298.8495 38.4219)" style="font-family:'ComicHunter'; font-size:100px;">STORE</text>
<g>
	<g>
		<path class="st0" d="M238.7,44.94c-18.55-23.07-59.46-35.13-101.4-36.2l2.46,136.39c2.11,7.12,6.65,13.94,13.55,13.94
			c9.87,0,11.88-9.23,15.98-9.23c4.1,0,4.41,3.47,4.41,10.72s-9.14,16.39-9.14,29.32c0,8.96,13.02,15.75,21.02,29.6
			c4.92-6.65,10.02-14.11,15.33-22.39C226.92,156.58,268.96,82.57,238.7,44.94z"/>
		<path class="st0" d="M89.08,149c4.97-12.92,20.79-16.76,31.9-17.91l2.39-122.3c-41.3,1.36-81.3,13.4-99.6,36.15
			C-6.49,82.57,35.55,156.57,61.55,197.09c5.39,8.4,10.56,15.96,15.54,22.69c8.01-15.55,20.81-24.68,20.81-31.83
			C97.9,177.55,82.77,165.39,89.08,149z"/>
	</g>
	<circle class="st0" cx="105.06" cy="156.75" r="4.92"/>
	<path class="st0" d="M138.44,188.48h-18.46c-1.72,0-3.11-1.39-3.11-3.11v-2.01c0-1.72,1.39-3.11,3.11-3.11h18.46
		c1.72,0,3.11,1.39,3.11,3.11v2.01C141.55,187.09,140.15,188.48,138.44,188.48z"/>
	<path class="st0" d="M138.44,202.32h-18.46c-1.72,0-3.11-1.39-3.11-3.11v-2.01c0-1.72,1.39-3.11,3.11-3.11h18.46
		c1.72,0,3.11,1.39,3.11,3.11v2.01C141.55,200.92,140.15,202.32,138.44,202.32z"/>
	<path class="st0" d="M138.44,216.15h-18.46c-1.72,0-3.11-1.39-3.11-3.11v-2.01c0-1.72,1.39-3.11,3.11-3.11h18.46
		c1.72,0,3.11,1.39,3.11,3.11v2.01C141.55,214.76,140.15,216.15,138.44,216.15z"/>
</g>
<g>
	<path class="st1" d="M370.76,108.55l0.01,0.39c-0.29,0.11-2.06,0.27-1.65,0.55C369.84,110.16,372.73,108.68,370.76,108.55z"/>
	<path class="st1" d="M493.85,121.64c0.12,0.49-0.18,0.5-0.47,0.51c0.85,1.31,1.31-1.34-0.08-1.49v0.87
		C493.43,121.52,493.61,121.54,493.85,121.64z"/>
	<path class="st1" d="M531.5,132.96c0.3-0.01,0.37-0.23,0.4-0.49h-0.41C531.47,132.6,531.46,132.76,531.5,132.96z"/>
	<path class="st1" d="M412.15,103.87c0.06-0.4,0.02-0.69-0.1-0.93h-0.81C411.38,103.36,411.74,103.62,412.15,103.87z"/>
	<path class="st1" d="M406.28,104.98c0.86,0.39,0.9-1.66,0.28-2.03h-0.35L406.28,104.98z"/>
	<path class="st1" d="M368.81,130.39c1.36-0.64,1.69-2.13,2.03-3.62c-0.99-1.42-2.63-1.19-4.42-0.85l2.37,4.58
		C368.8,130.46,368.81,130.43,368.81,130.39z"/>
	<polygon class="st1" points="297.01,101.67 330.69,101.67 313.68,69.62 	"/>
	<path class="st1" d="M403.49,103.09c0.19-0.04,0.4-0.07,0.65-0.11c0.5-0.02,1.15,0.02,1.76-0.04h-2.41V103.09z"/>
	<polygon class="st1" points="657.65,101.67 691.33,101.67 674.32,69.62 	"/>
	<path class="st1" d="M556.5,116.67c0-0.1,1.68,0.23,1.49,0.44C559.14,115.98,556.28,115.99,556.5,116.67z"/>
	<path class="st1" d="M912.97,70.43h-19.21c-5.17,0-9.01,1.42-11.52,4.27s-3.76,6.85-3.76,12.01v14.55c0,5,1.23,8.89,3.7,11.66
		c2.47,2.77,6.33,4.16,11.57,4.16h19.21c6.56,0,11.25-1.31,14.06-3.92c2.82-2.62,4.22-6.58,4.22-11.89V87.28
		c0-5.31-1.35-9.35-4.05-12.12C924.2,72,919.45,70.43,912.97,70.43z"/>
	<path class="st1" d="M813.9,75.99c-3.4-2.4-9.41-3.6-18.05-3.6h-31.71v44.79h30.32c10.03,0,16.71-1.86,20.02-5.57
		c2.39-2.71,3.59-7.62,3.59-14.74V85.39C818.06,81.06,816.68,77.92,813.9,75.99z"/>
	<path class="st2" d="M355.83,112.26c0.14,1.18-2.58-0.4-1.72,1.44C355.21,114.05,356.91,112.22,355.83,112.26z"/>
	<path class="st2" d="M366.42,125.92c-1.6,0.31-3.3,0.7-4.77,0.11c-0.4-0.28-0.82-0.76-1.12-0.94c-0.91-0.66-1.75-2.1-3.82-2.03
		c-0.12-0.59-0.37-2.05-1.26-2.02c-1.18-0.06-0.25-1.47-1.16-2.03c0,0-0.39,0.11-0.39,0.01c-0.3-0.19,0.06-0.99-0.04-1.08
		c-1.01-0.65-0.99-0.16-1.16-2.03c0-0.1,0.06-0.99-0.04-1.08c-0.3-0.09-1.69-0.43-1.35-2.02c2.87,0.29,3.6-1.22,5.96-1.3
		c-0.18,0.4-0.46,0.9-0.43,1.59c0.59-0.12,0.26-0.9,1.05-0.93c0.59,0.08,0.26-1.09,0.45-1.2c0.16-0.03,0.31,0.08,0.46,0.22
		L330,55.61h-33.45l-39.12,76.85h25.12l7.06-14.24h40.58c0.15-0.07,0.32-0.12,0.45-0.21c0.29-0.21,3.1-1.3,3.42-0.72
		c0.6,0.17,0.17-0.79,0.46-1c0.48-0.31,1.99,0.42,1.95-0.47c1.18-0.14,1.4,0.64,2.39,0.8c0.2,0.09,0.98-0.13,1.08-0.04
		c0.83,1.05-0.02-0.59,1.87-0.07c0.2,0.09,0.53,1.06,0.53,1.06c0.69-0.03,0.57-0.61,1.48-0.05c0.3,0.09-0.08,0.4,0.51,0.47
		c0.49-0.02,0.73,1.15,1.03,1.34c0.31,0.28,1.29,0.25,1.49,0.44c0.42,0.58-0.34,1.49,0.55,1.46c0.89-0.03,1.04,4.1,0.67,4.9
		c-0.09,0.1-0.75,0.91-0.95,1.02c-0.47,0.61-0.76,0.72-1.93,1.06c0,0-1.36,0.44-1.36,0.54c-0.1,0.1-0.18,0.18-0.25,0.24l1.8,3.47
		h23.06c0.16-0.63,0.3-1.27,0.35-1.96L366.42,125.92z M297.01,101.67l16.67-32.06l17.01,32.06H297.01z"/>
	<path class="st2" d="M399.73,103.74c-0.2,0.01-0.64,1.3-0.93,1.51C400.49,105.39,400.32,103.62,399.73,103.74z"/>
	<path class="st2" d="M406.56,102.95c-0.1-0.06-0.22-0.08-0.36-0.04v0.04H406.56z"/>
	<path class="st2" d="M399.24,103.76c-0.98,0.04-1.85,0.46-2.12,1.16C398.14,105.77,398.78,104.66,399.24,103.76z"/>
	<path class="st2" d="M411.2,102.24c-0.05,0.29-0.03,0.52,0.04,0.71h0.81C411.88,102.6,411.56,102.4,411.2,102.24z"/>
	<path class="st2" d="M381.04,106.99c0.49-0.02,0.26-0.99,0.34-1.49c2.65-0.2,4.41-0.56,7.56-0.77c1.67-0.16,3.12-0.8,4.4-0.75
		c1.08-0.04,1.67-0.16,1.61,1.02c0.68-0.22,0.55-1.1-0.04-1.08c1.05-1.02,2.44-0.68,3.81-0.73c0.2-0.01,2.84-0.4,3.25-0.12
		c0.36,0.5,0.25,0.27,1.52,0.03v-0.15h2.41c0.1-0.01,0.21-0.02,0.31-0.04c0.34-1.59,3.16,0.28,3.72-0.63
		c0.56-0.71,0.3,0.09,0.59-0.02c0.39-0.01,0.67-0.62,0.67-0.62c0.59,0.08,2.3,1,4.74,0.42c0.24,0.35,0.53,0.63,0.85,0.89h37.87
		V86.51h-51.16V72.62h53.93V55.61h-77.89v50.38C380.51,106.02,381.01,106.01,381.04,106.99z"/>
	<path class="st2" d="M403.49,131.47v-12.23c-0.3,0.01-0.6,0.02-0.92,0.06c-3.92,0.44-7.81,1.96-11.35,1.99
		c0.2,2.65,0.4,5.4-0.12,7.39c-0.19,0.2,0.03,0.79,0.03,0.89c-0.19,0.1-0.69,0.03-0.69,0.03c-0.22,0.95-0.06,2.12-0.33,2.87h13.29
		c-0.04-0.2-0.07-0.4-0.08-0.59C403.32,131.47,403.38,131.38,403.49,131.47z"/>
	<path class="st2" d="M471.07,128.78c0.2-0.01,0.89,0.16,0.98-0.04c0.36-0.8-0.26-1.76,0.29-2.97c0.5,0.28,0.91,0.56,1.59,0.53
		c-0.02-0.49-0.6-0.37-1-0.55c-0.32-0.58,0.37-0.7,0.46-0.9c0.08-0.5,0.04-1.68,0.42-1.99c0.19-0.2,0.6,0.27,0.51,0.47
		c0,0,0.88-0.23,0.47-0.51c-1.42-1.03,0.36-1,0.91-2c0.55-1-0.2-2.75,1.37-3c-0.47-2.05,1.5-2.12,1.24-3.89
		c0.59-0.02,0.98-0.23,1.06-0.63c0.79,0.17,1.96-0.17,2.95-0.11c0,0,1.22,1.14,1.41,0.93c0.76-0.82,0.01,0.2,0.51,0.47
		c0.41,0.28,1.08-0.24,1.57-0.06c0.2,0.19,0.62,0.76,0.92,0.95c0.4,0.18,1.19,0.25,1.49,0.44c0.51,0.38,0.14,1.08,0.55,1.46
		c0.41,0.38,1.09,0.16,1.49,0.44c0.2,0.19-0.16,0.89,0.04,0.98c0.1,0.09,1,0.36,1,0.46c0.42,0.67-0.23,1.78,1.04,1.44
		c0.23,0.98-0.35,1.29-0.42,1.98c1.35,0.45,0.66-1.06,1.38-1.16v-0.87c-0.14-0.01-0.29-0.01-0.47,0.03
		c-0.01-0.17,0.22-0.35,0.47-0.45V55.61h-22.57v74.21c0.18,0.02,0.34,0.05,0.38,0.04C471.3,129.66,470.88,128.99,471.07,128.78z"/>
	<path class="st2" d="M578.75,113.78c0.29-0.01,0.39-0.21,0.28-0.4l-0.39,0.01C578.64,113.49,578.75,113.68,578.75,113.78z"/>
	<path class="st2" d="M562.39,115.96c1.18-0.14-0.64-1.26-1.03-1.34c0.33-1.88,1.78,0.13,1.49,0.34c0.49-0.12,0.44-1.4,1.44-0.94
		c0.02,0.59-0.05,1.28,0.54,1.36c0.67-0.42-0.23-0.78,0.42-1.98c0.41,0.38,1.41,0.74,1.38-0.05c0.8,0.36,0.53,0.96,0.05,1.48
		c0.28-0.4,1.36-0.44,1.03-1.52c0.78-0.23,2.87,0.48,2.93-0.6c1.39,0.34-0.55,1.1,0.07,1.97c0.58-0.32,0.85-1.02,0.91-2
		c0.86-0.62,0.82,0.95,0.92,1.05c0.59,0.08,0.75-1.11,1.44-0.94c-0.2-0.09-0.3-0.19-0.21-0.39l0.31,0.38l0.7,0.17v-0.1h-0.1
		c0.09-0.2,0.09-0.3,0.19-0.3c0-0.1-0.01-0.3,0.08-0.5c0.99,0.06,1.69,0.43,2.39,0.8c0.29-0.01,0.69-0.03,0.89,0.07l0.79-0.03
		c0.38-0.31,0.67-0.52,0.65-1.21c0.3,0.09,0.32,0.58,0.33,0.87c0.5,0.08,1.09,0.25,1.35-0.74c0.6,0.27,0.11,0.39,0.03,0.79
		c0.39-0.01,0.78-0.13,0.88-0.13c0-0.1,0.1-0.1,0.09-0.2c0.1,0.09,0.1,0.09-0.09,0.2l0.01,0.29c0.7,0.17,1.2,0.55,1.25-0.74
		c0.51,0.38,2.81,1.37,1.59,0.43c0.09-0.36,0.19-0.5,0.3-0.51L548.29,55.6H510.2v62.8c0.55-0.02,1.56-0.89,1.68,0.59
		c0.59-0.12,0.26-0.99,0.95-1.02c0.51,0.47,2.07-0.08,2.48,0.4c0.1,0.09-0.16,0.89,0.04,0.98c0.3,0.09,0.86-0.82,1.46-0.55
		c0.2,0.09-0.05,1.28,0.53,0.97c0.59-0.12,0.18-0.5-0.02-0.49c0.17-0.7,0.4,0.08,0.98-0.04c0.91,0.66,2.02,1.3,3.5,1.35
		c0.31,0.38,0.52,0.77,0.55,1.46c0.69-0.03,0.99,0.16,1.49,0.44c1,0.36,1.81,0.92,3.02,1.86c0.2,0.19-0.08,0.5,0.51,0.47
		c0.29-0.01,0.91,0.56,0.92,0.95c0.12,0.69,0.79,0.07,1,0.46c0.31,0.38,0.43,1.07,0.64,1.45c0.63,1.16,1.45,1.82,1.98,2.88
		c0.45,1.05-0.28,1.19-0.41,1.88h0.41c0.02-0.17,0.02-0.35,0.06-0.51c0.05,0.1,0.33,0.31,0.6,0.51h0.33V72.28l28.49,42.57
		C561.89,114.88,562.32,115.13,562.39,115.96z"/>
	<path class="st2" d="M587.86,112.5c0.31,0.18,0.61,0.47,1.1,0.32c0.02,0.59-0.58,0.42-0.86,0.62c0.53,1.06,1.08-0.24,1.87-0.07
		c0.49-0.02,0.85,1.74,2,0.81c-0.53,1.6,1.59,0.33,1.06,1.93c1.46-0.45,0.65,1.65,2.4,0.99c-1.05,0.92-0.36,3.66,0.15,1.37
		c1.4,0.54,0.2,2.65-1.4,2.02c0.32,0.68,1.12,0.85,1.91,0.91c-0.19,0.11-0.16,0.99-0.36,1c-0.48,0.21-1-0.46-1-0.46
		c-0.58,0.22-0.07,0.69-0.46,1c-0.09,0.1-1.41-0.93-0.96,0.53c-1.4-0.54-2.7-1.08-4.86-0.81c-0.03-0.69-0.05-1.38-0.64-1.45
		c-0.59,0.12-0.18,0.5,0.02,0.49c-0.34,1.59-1.08,0.04-1.83,1.05c1.15,1.93,6.48-0.63,6.4,2.72c-0.51-0.57-1.19-0.15-0.49,0.02
		c0.04,0.98-0.98,0.04-0.98,0.04c-0.69,0.03,0.53,0.97-0.46,1c-0.39,0.01-0.41-0.48-0.51-0.47c-0.79,0.03-1.07,0.43-1.95,0.56
		l-0.02-0.49c-0.2-0.09-2.22,1.26-1-0.46c-0.89-0.16-1.47,0.15-1.34,1.03c-0.3-0.19-0.9-0.26-1.58-0.14
		c0.2,0.19,0.31,0.38,0.31,0.38l-1.97,0.07c-0.19,0.11-0.29,0.11-0.29,0.01c-0.2-0.09-0.12-0.49-0.21-0.48
		c-0.5-0.08-0.28,0.4-0.47,0.51l0.49-0.02c-0.49,0.12-1.08,0.14-1.38,0.05l-3.44,0.13h-0.1l0.02,0.49
		c-0.39,0.01-4.45-0.43-4.82,0.18c-0.35,0.28-0.89,0.25-1.79,0.42l2.76,4.13h38.43V55.61h-23.73v56.89H587.86z M591.93,126.49
		c0.63-1.6,0.97-0.33,2.42-1.07c-0.41-0.48-0.91-0.66-1.51-0.93c-0.14-1.08,1.76-0.26,2.44-0.58c-0.08,0.59,0.13,0.88,0.52,0.87
		C595.57,126.36,593.9,126.61,591.93,126.49z"/>
	<path class="st2" d="M579.03,113.38c0.2,0.09,0.5,0.08,0.89,0.07c-0.44,1.4-0.67,0.52-1.95,0.56c-0.16,1.09,1.49,0.44,1.53,1.32
		c0.49-0.12,0.36-1,0.95-1.02c0.07-0.89-0.44-1.26-1.04-1.44l-0.39,0.01l-0.28,0.31C578.83,113.19,578.93,113.28,579.03,113.38z"/>
	<path class="st2" d="M578.23,112.91l-0.69,0.03c0.3,0.19,0.7,0.37,1.1,0.45C578.53,113.2,578.43,113,578.23,112.91z"/>
	<path class="st2" d="M581.38,112.9c0.41,0.48,0.54,1.16,0.56,1.85c0.79,0.07,0.35-1.1,0.32-1.98
		C581.96,112.68,581.67,112.69,581.38,112.9z"/>
	<path class="st2" d="M566.26,116.8c0.67-0.42-0.04-0.98,0.42-1.98c-0.38,0.41-0.76,0.82-0.85,1.02
		C565.94,116.22,566.24,116.31,566.26,116.8z"/>
	<path class="st2" d="M581.37,112.6c-0.2,0.01-0.39,0.11-0.59,0.12c0.2,0.09,0.3,0.19,0.31,0.38c0.09-0.1,0.19-0.2,0.29-0.21v-0.1
		L581.37,112.6z"/>
	<path class="st2" d="M574.09,112.87c0.31,0.28,0.52,0.67,1.2,0.45c-0.01-0.2-0.11-0.29-0.21-0.39l-0.29,0.01
		c-0.1,0.1-0.19,0.11-0.29,0.11C574.29,112.96,574.19,112.86,574.09,112.87z"/>
	<path class="st2" d="M511.01,119.53c0.02-0.51-0.39-0.53-0.81-0.52v0.78C510.44,119.83,510.7,119.76,511.01,119.53z"/>
	<path class="st2" d="M573.99,112.77c0,0,0.1,0,0.1,0.09v-0.1L573.99,112.77z"/>
	<path class="st2" d="M586.04,112.92l-0.07-0.1c0.02,0.06,0.03,0.1,0.03,0.1C586.02,112.92,586.03,112.92,586.04,112.92z"/>
	<path class="st2" d="M580.33,127.02c0,0-0.1,0-0.1-0.09c-0.41-0.48-0.3-0.19-0.98,0.04C579.64,127.04,580.03,127.03,580.33,127.02z
		"/>
	<path class="st2" d="M582.1,127.05l0.29-0.01v-0.1C582.29,126.94,582.2,127.05,582.1,127.05z"/>
	<path class="st2" d="M580.33,127.02c0.1,0.09,0.1,0.09,0.2,0.09l0.88-0.03C581.21,127.08,580.82,127.1,580.33,127.02z"/>
	<path class="st2" d="M575.21,127.11c-0.19,0.11,0.69,0.07,1.88,0.13c0.1-0.1,0.19-0.11,0.29-0.11
		C576.58,127.06,575.79,126.99,575.21,127.11z"/>
	<path class="st2" d="M577.37,127.13c0.59-0.02,1.18-0.04,1.87-0.17C578.45,126.99,577.76,127.01,577.37,127.13z"/>
	<path class="st2" d="M576.27,113.28c0,0,0.39-0.11,0.68-0.32l-0.88,0.03C576.17,113.09,576.18,113.28,576.27,113.28z"/>
	<path class="st2" d="M582.85,126.04c-0.5-0.18-0.37,0.6-0.46,0.9l1.66-0.36c0,0-0.1-0.09-0.2-0.09
		C583.36,126.51,582.97,126.53,582.85,126.04z"/>
	<path class="st2" d="M657.19,55.61l-39.12,76.85h25.12l7.06-14.24h48.38l7.41,14.24h24.42l-39.81-76.85
		C690.65,55.61,657.19,55.61,657.19,55.61z M657.65,101.67l16.67-32.06l17.01,32.06H657.65z"/>
	<path class="st2" d="M831.78,62.33c-7.14-4.48-18.42-6.72-33.85-6.72h-57.64v76.85h61.46c16.51,0,27.85-3.52,34.03-10.55
		c4.63-5.25,6.94-13.56,6.94-24.92l-0.23-12.87C842.49,74.08,838.91,66.82,831.78,62.33z M818.06,96.88c0,7.12-1.2,12.03-3.59,14.74
		c-3.32,3.71-9.99,5.57-20.02,5.57h-30.32v-44.8h31.71c8.64,0,14.66,1.2,18.05,3.6c2.78,1.94,4.17,5.07,4.17,9.4L818.06,96.88
		L818.06,96.88z"/>
	<path class="st2" d="M944.68,61.41c-6.48-3.86-14.35-5.8-23.61-5.8h-35.65c-7.48,0-14.31,2.05-20.49,6.13
		c-6.94,4.63-10.42,10.3-10.42,17.01v29.63c0,7.41,3.32,13.35,9.95,17.82c6.09,4.17,13.5,6.25,22.22,6.25c2.01,0.1,4.34,0.17,7,0.19
		s8.28,0.04,16.84,0.04c1.46,0,3.26,0,5.38,0s3.49,0,4.11,0c9.1,0,17.01-1.89,23.73-5.68c7.87-4.48,11.81-10.66,11.81-18.55V78.79
		C955.56,71.53,951.93,65.73,944.68,61.41z M931.26,101.25c0,5.31-1.41,9.28-4.22,11.89c-2.82,2.62-7.5,3.92-14.06,3.92h-19.21
		c-5.25,0-9.11-1.39-11.57-4.16c-2.47-2.77-3.7-6.66-3.7-11.66V86.7c0-5.16,1.25-9.16,3.76-12.01s6.35-4.27,11.52-4.27h19.21
		c6.48,0,11.23,1.58,14.24,4.73c2.7,2.77,4.05,6.81,4.05,12.12v13.98H931.26z"/>
	<path class="st3" d="M574.09,112.87c0.1,0,0.2,0.09,0.4,0.18c0.1,0,0.2-0.01,0.29-0.11l-0.7-0.17L574.09,112.87z"/>
	<path class="st3" d="M582.39,127.04l1.97-0.07c0,0-0.11-0.19-0.31-0.38l-1.66,0.36V127.04z"/>
	<path class="st3" d="M573.78,112.39c-0.09,0.2,0.01,0.29,0.21,0.39h0.1L573.78,112.39z"/>
	<path class="st3" d="M582.34,112.27c0,0.1-0.09,0.1-0.09,0.2C582.44,112.36,582.44,112.36,582.34,112.27z"/>
	<path class="st3" d="M581.37,112.6l0.01,0.2v0.1c0.29-0.21,0.58-0.22,0.88-0.13l-0.01-0.29
		C582.15,112.47,581.76,112.59,581.37,112.6z"/>
	<path class="st3" d="M578.64,113.39l0.39-0.01c-0.1-0.09-0.2-0.19-0.3-0.19l0.28-0.31l-0.79,0.03
		C578.43,113,578.53,113.2,578.64,113.39z"/>
	<path class="st3" d="M579.24,126.96c-0.68,0.12-1.27,0.15-1.87,0.17c-0.1,0-0.2,0.01-0.29,0.11l3.44-0.13c-0.1,0-0.1,0-0.2-0.09
		C580.03,127.03,579.64,127.04,579.24,126.96z"/>
	<path class="st3" d="M595.28,123.9c-0.68,0.32-2.58-0.5-2.44,0.58c0.6,0.27,1.1,0.45,1.51,0.93c-1.45,0.74-1.79-0.52-2.42,1.07
		c1.97,0.12,3.64-0.13,3.88-1.72C595.41,124.79,595.2,124.5,595.28,123.9z"/>
	<path class="st3" d="M581.9,127.06l-0.49,0.02l-0.88,0.03C580.82,127.2,581.41,127.17,581.9,127.06z"/>
	<path class="st3" d="M582.39,127.04l-0.29,0.01C582.1,127.15,582.2,127.15,582.39,127.04z"/>
</g>
<g class="st4">
	<path class="st5" d="M286.05,196.56c0.54,1.16,2.12-1.16,1.92,1.31c-1.8-0.62-0.16,0.99,1.57-0.06c-0.31-0.38-1.4-0.64-0.52-0.87
		c-0.03-0.79-0.59-0.08-0.59,0.02c-0.5-0.28-0.33-0.97-0.92-0.95c1.05-0.83-1.05-1.64,0.83-1.61c-0.11-0.39-0.42-0.77-0.92-0.85
		c0.17-0.7,0.88-0.13,0.9,0.46c0.68-0.22,0.63-1.5-0.05-1.48c0.46-1,1.23-1.42,1.99-2.04c0.57-0.51,1.32-1.53,2.4-1.57
		c-0.17,0.79,0.33,0.87,0.92,0.95c0.99,0.06-0.15-1.47-0.45-1.46c0.17-0.7,0.76-0.82,0.83-1.51c0.59,0.08,0.52,0.87,0.55,1.46
		c-1.22-0.94-1.17,0.24,0.02,0.49c0.69-0.12,0.45-1.2,0.52-1.99c0.6,0.18,0.84-1.11,1.32-1.53c0.19-0.11,0.89,0.16,0.98-0.04
		c0.09-0.1,0.36-0.9,0.55-1c0.1-0.1,0.79,0.17,0.89-0.03c0.19-0.2,1.5-2.12,1.93-1.06c0.59-0.12,0.28-0.5-0.02-0.49
		c0.44-1.49,1.58,0.24,2.46-0.09c-0.02-0.49-0.6-0.37-1-0.46c-0.54-1.26,1.46-0.45,1.93-1.06c0.38-0.51,0.96-0.63,1.44-1.04
		c0.57-0.61,0.37-0.7,1.44-1.04c0,0,1.36-0.54,1.46-0.55c0.28-0.4,0.85-0.92,1.91-1.55c1.25-0.74,2.13-0.97,3.39-1.6
		c-0.1,0,0.07-0.79,0.47-0.51c0.41,0.58,0.3,0.19,0.47-0.51c0.5,0.08,0.78-0.13,0.87-0.53c0.98-0.04,1.11,0.65,2.08,0.42
		c-0.11-0.39-0.7-0.27-1-0.46c0.36-0.9,1.31-1.92,2.29-2.05c0.69-0.03,0.56-0.71,1.04-1.02c0.58-0.22,1.37-0.25,1.85-0.46
		c0.29-0.11,0.47-0.51,0.47-0.51c0.29-0.11,0.7,0.37,0.61,0.47c0.58-0.42-0.11-0.39-0.02-0.49c0.74-1.31,2.43-0.88,2.89-1.68
		c-0.63-0.96-2.17-0.22-2.96-0.28c-1.19-0.25-3.55-0.17-5.92-0.27c-1.09-0.06-1.68-0.23-3.46-0.36c-0.79-0.07-0.9-0.46-1.59-0.43
		c-1.68-0.13-3.44,0.13-4.84-0.31c-0.2-0.09-0.88,0.13-0.98,0.04c-0.72-0.76-2.48-0.5-3.97-0.84c-0.1-0.1-0.21-0.39-0.51-0.47
		c-0.3-0.09-0.68,0.12-0.88,0.03c-0.5-0.18-1.13-1.14-1.63-1.42c-0.81-0.56-1.6-0.53-1.91-0.91c-0.4-0.28-0.44-1.17-0.64-1.45
		c-0.21-0.38-0.71-0.66-1.02-0.95c-0.21-0.39-0.24-1.07-0.55-1.46c-0.11-0.19-0.9-0.26-0.9-0.46c-0.31-0.38,0.06-1.08-0.05-1.47
		c-0.1-0.09-1-0.36-1.1-0.45c-0.12-0.59,0.05-1.28-0.07-1.87c-0.27-1.96-0.9-5.78-0.86-9.92c0.95-0.92,1.71-1.74,2.85-2.96
		c0.66-0.71,0.93-1.61,1.5-2.02c0.09-0.2,0.79,0.17,0.89-0.03c0.19-0.2,0.36-1,0.46-1c0.77-0.42,1.37-0.15,2.05-0.57
		c0,0,0.18-0.4,0.38-0.51c0.19-0.11,0.59-0.02,0.47-0.51c0.88-0.23,0.9,0.36,1.49,0.44c0.59-0.12,0.75-0.91,1.44-1.04
		c-0.15-1.47-1.98,2.34-1.98-0.42c1,0.55,0.75-0.91,0.95-1.02c0.19-0.11,0.61,0.57,1,0.46c-0.1,0,0.18-0.5,0.47-0.51
		c0.49-0.02,1.57-0.25,1.95-0.56c0.09-0.1,0.26-0.9,0.46-1c0.78-0.32,1.98,0.22,2.93-0.6c0.19-0.2,0.16-0.89,0.46-0.9
		c0.19-0.21,0.79-0.03,0.89-0.03c0.09-0.1-0.02-0.59-0.02-0.59c0.29-0.01,0.99,0.06,1.08-0.04l-0.02-0.49
		c0.39-0.11,1.09,0.16,1.48-0.05c0.77-0.42,1.54-1.04,2.4-1.57c0.39-0.21,0.88-0.23,1.36-0.44c0.39-0.21,0.75-1.01,1.04-1.12
		c0.19-0.11,0.59,0.08,0.98-0.04c0.39-0.11,0.09-0.3,0.38-0.51c0.87-0.43,2.64-0.59,3.37-2c1.18-0.04,1.96-0.17,2.93-0.7
		c0.29-0.01,1.17-0.24,1.46-0.55c0.09-0.1,0.36-0.9,0.46-0.9c0.97-0.43,2.44-0.49,3.41-1.11c0.29-0.21,3.1-1.3,3.42-0.72
		c0.6,0.18,0.17-0.79,0.46-1c0.48-0.31,1.99,0.42,1.95-0.47c1.18-0.14,1.4,0.64,2.39,0.8c0.2,0.09,0.98-0.13,1.08-0.04
		c0.83,1.05-0.02-0.59,1.87-0.07c0.2,0.09,0.53,1.06,0.53,1.06c0.69-0.03,0.57-0.61,1.48-0.05c0.3,0.09-0.08,0.4,0.51,0.47
		c0.49-0.02,0.73,1.16,1.03,1.34c0.31,0.28,1.29,0.25,1.49,0.44c0.41,0.58-0.34,1.49,0.55,1.46c0.89-0.03,1.04,4.1,0.67,4.9
		c-0.09,0.1-0.75,0.91-0.95,1.02c-0.47,0.61-0.76,0.72-1.93,1.06c0,0-1.36,0.44-1.36,0.54c-0.38,0.41-0.48,0.41-1.06,0.53
		c0,0-1.36,0.54-1.46,0.55c-0.19,0.3-0.96,0.63-2.42,1.07c-1.07,0.34-2.44,0.68-3.31,1.11c-0.19,0.11,0.01,0.39-0.47,0.51
		c-0.39,0.01-2.03,1.06-2.03,1.06c-0.42-0.58-0.3-0.19-0.38,0.51c-1.38-0.15-2.45,0.39-3.41,1.11c-0.58,0.32-1.18,0.14-1.95,0.56
		c-0.19,0.11-0.26,0.9-0.46,1c-0.78,0.33-1.27,0.15-1.95,0.56c-0.96,0.53-1.84,0.76-2.9,1.58c-0.48,0.41-0.86,0.62-1.44,0.94
		c-0.58,0.42-0.96,0.63-1.34,1.13c-0.38,0.31-0.87,0.33-1.56,0.55c-1.27,0.34-3.57,2.1-4.7,3.52c-2.36,0.09-2.79,1.88-4.43,2.72
		c1.33,1.43,2.98,0.58,4.56,0.72c1.09,0.16,1.58,0.24,3.46,0.37c1.29,0.15,4.84,0.31,6.83,0.83c1.78,0.23,5.31-0.1,7.41,0.61
		c0.2,0.09,0.88-0.13,0.98-0.04c0.62,0.76,1.88,0.13,2.99,0.88c0.1,0,0.61,0.47,0.51,0.47c0.3,0.09,0.47-0.61,0.97-0.53
		c0,0,0.21,0.39,0.41,0.48c0.3,0.09,1.68,0.23,2.08,0.42c0.1,0-0.16,0.99,0.04,0.98c0.2,0.09,0.67-0.42,0.87-0.52
		c-0.09,0.1,0.32,0.78,0.51,0.47c0.66-0.81,1.82,1.31,3.48,0.86c0.51,0.38,0.63,0.96,1.14,1.44c0.71,0.66,1.61,0.93,1.96,2.29
		c1.58,0.24,1.74,1.91,3.52,1.94c0.24,1.17,1.16,2.03,2.09,3.37c0.41,0.48,1.02,0.85,1.53,1.42c0.1,0.09-0.17,0.79,0.04,0.98
		c1.01,0.75,0.6,0.37,1.07,2.42c0.11,0.39,0.61,0.57,0.54,1.36c-0.06,0.99-0.84,1.31-0.89,2.49c-0.97,0.33-1.75,0.66-2.91,1.09
		c-0.39,0.21-0.38,0.41-0.47,0.51c-0.68,0.32-1.27,0.24-1.95,0.56c-0.29,0.21-0.75,0.92-0.95,1.02c-0.29,0.21-0.51-0.57-1-0.36
		c0-0.1-0.28,0.31-0.48,0.41c-0.19,0.2-0.68,0.32-0.97,0.53c-0.19,0.11-0.38,0.51-0.38,0.51c-0.77,0.42-1.37,0.25-2.05,0.57
		c-0.19,0.21-0.66,0.91-0.85,1.02c-0.58,0.22-1.58-0.24-1.56,0.55c-0.59,0.12-1.27,0.15-1.4-0.44c-0.69,0.12-1.06,0.73-1.54,1.04
		c-0.09,0.2-0.7-0.17-0.88,0.03c-0.19,0.2,0.13,0.88,0.04,0.98c-0.19,0.1-0.71-0.57-1-0.46c0,0-0.28,0.4-0.47,0.51
		c-0.2,0.01-1.27,0.34-1.46,0.55c-0.19,0.1-0.26,0.9-0.46,1c-0.39,0.21-1.09-0.16-1.48,0.05c-0.48,0.22-1.06,0.73-1.44,1.04
		c-0.29,0.21-0.75,0.91-0.95,1.02c-0.58,0.42-1.57,0.06-2.44,0.58c-0.29,0.11-0.26,0.9-0.46,1c-0.87,0.33-1.37,0.15-1.95,0.56
		c-0.19,0.2,0.11,0.39-0.47,0.51c-0.2,0.01-1.07,0.33-1.36,0.45c-0.48,0.21-0.37,0.51-0.57,0.51c-1.16,0.63-2.62,0.98-3.88,1.72
		c-0.19,0.1,0.11,0.39-0.47,0.51c-0.59,0.02-0.56,0.81-0.85,0.92c-0.67,0.52-1.37,0.25-2.05,0.57c-0.38,0.31-0.56,0.81-0.84,1.11
		c-0.19,0.11-0.89-0.16-0.98,0.04c-0.29,0.21-1.33,1.43-1.92,1.45c-0.1,0-0.39,0.01-0.49,0.02c-0.39,0.21-0.66,0.91-1.04,1.12
		c-0.1,0-0.79-0.17-0.89,0.03c-0.1,0,0.11,0.39,0.02,0.49c-0.29,0.11-1.08,0.14-1.46,0.45c-0.28,0.31-0.26,0.9-0.46,1
		c-0.38,0.31-1.08-0.06-0.96,0.53c-1.09-0.06-2.07-0.02-2.93,0.6c-0.58,0.41-0.96,0.62-1.44,1.04c-0.38,0.41-1.46,0.45-2.42,1.07
		c-0.29,0.21-0.75,1.01-0.85,1.02c-0.49,0.21-1.09-0.06-1.57,0.06c-0.39,0.21-0.66,0.91-0.95,1.02c-0.58,0.22-2.39-0.6-1.93,1.06
		c-0.67,0.52-1.3-0.44-1.39-0.44c-0.39,0.01-0.95,0.82-1.56,0.55c0,0,0.06-0.99-0.04-0.98c-0.2,0.01-0.95,1.02-0.85,1.02
		c-1.58-0.24-2.53-1.88-5.48-1.77c0.44-1.3-1.22-1.14-1.55-1.91c-0.42-0.67-0.51-3.03-0.6-2.93c0.18-0.4,1.31,0.74,1.49,0.44
		c0.62-1.89-2.17-0.02-1.55-1.91c1.76-0.46,2.51,1.19,2.93-0.6c-0.54-1.36-1.66,0.46-2.46,0.09c0.45-1.1,0.85-3.67,2.37-2.55
		c-0.02-0.59-0.04-1.18-0.07-1.87c1.17-0.34-0.22,2.17,1.53,1.32C286.89,195.45,287.34,196.81,286.05,196.56z M290.18,201.73
		c-1.28,0.05-2.35,0.38-2.91,1.09C288.24,202.49,290.64,203.48,290.18,201.73z M289.56,198.3c-2.76,0,1.13,1.34,0.98-0.04
		C290.25,198.28,289.85,198.29,289.56,198.3z M288.85,192.52c0.84,1.45,4.16-2.12,1.8-2.04c0.02,0.49,0.03,0.88,0.05,1.38
		C290.02,191.98,288.93,191.83,288.85,192.52z M289.25,203.24c-0.05,1.28-0.01,2.46,1.07,2.42
		C289.58,204.11,290.83,203.28,289.25,203.24z M289.49,196.43c0.49-0.02,0.6,0.27,1,0.46C291.83,195.85,289.45,195.35,289.49,196.43
		z M294.58,203.53c-0.13,1.88-1.98-0.42-1.8,2.04C293.66,205.44,295.88,204.17,294.58,203.53z M295.54,186.85
		c-0.39,0.21,1.41,0.93,1.41,0.93C297.42,187.28,296.01,186.25,295.54,186.85z M297.37,185.8c-0.29,0.01-0.59,0.02-0.47,0.51
		c1.08-0.14,1.95-0.56,1.93-1.06c0.08-0.59,2.12-1.16,0.44-1.49c0.23,0.88-0.96,0.63-1.34,1.04
		C297.64,185.1,297.96,185.88,297.37,185.8z M305.42,136.95c-0.59-0.08-0.81-0.56-1.02-0.95c0.29-0.01,0.48-0.41-0.02-0.49
		c-0.07,0.69-0.66,0.71-0.44,1.49C304.82,136.78,305.24,137.65,305.42,136.95z"/>
	<path class="st5" d="M383.47,159.77c0.12,0.69-0.27,0.6-0.36,0.9c-0.19,0.3,0.23,0.98,0.05,1.38c-0.19,0.11-0.88,0.23-0.97,0.43
		c-0.35,1.1,0,2.76-1.28,2.71c0.48,2.25,0.8,3.12,0.67,4.9c-0.79-0.17-0.77,0.42-0.85,0.92c-0.4-0.08-0.51-0.47-1-0.45
		c0.03,0.79,0.44,1.26,1.03,1.34c-0.33,1.59-1.89,2.14-1.82,4.1c-0.49,0.02-0.32-0.58-0.52-0.87c-1.36,0.45,0.35,1.37,0.08,2.26
		c-0.69,0.03-0.26,0.9-0.45,1.3c-0.09,0.3-0.86,0.82-0.85,0.92c-0.08,0.4,0.24,1.07,0.05,1.38c-0.09,0.2-0.89-0.07-0.98,0.04
		c-0.17,0.7,0.35,1.56,0.09,2.36c-1.37,0.35-1.02-0.95-1.9-0.91c0.11,0.19-0.15,1.19,0.05,1.28c0,0.1,0.88-0.03,0.98-0.04
		c0.12,0.59-0.86,0.82,0.07,1.87c-1.38,0.05-1.21,2.01-2.43,0.98c-0.16,0.99,0.82,0.76,1.51,0.83c-0.57,0.51,0.07,1.97-0.39,2.77
		c-0.1,0-0.89-0.06-0.98,0.04c0.01,0.2,0.72,0.76,0.54,1.26c0.09-0.2-0.47,0.61-0.47,0.51c-0.28,0.41-0.65,1.21-0.28,3.16
		c-0.49,0.02-0.47,0.51-0.46,0.9c-0.5-0.28-2.98-0.78-3.06-0.28c-0.31-0.38-0.62-0.76-0.94-1.34c-0.67,0.42,0.22,0.68-0.33,1.79
		c-0.98,0.13-1.1-0.55-2.08-0.32c0.47-0.51,0.96-0.73,1.54-0.94c-0.12-0.49-1.41-0.83-1.9-0.82c-0.99-0.06-1.94,0.66-1.97,0.07
		c-0.48,0.31-0.76,0.82-0.94,1.32c-1.3-0.64-2.14,0.77-2.51-1.19c2.09,0.71,0-0.1-0.05-1.38c-1.26,0.54,0.83,1.15-0.33,1.79
		c-0.49,0.02-0.41-0.48-0.53-0.96c-0.11-0.39-0.4-0.18-0.39,0.01c-1.09-0.26-1.52-1.13-2.03-1.6c-0.21-0.29,0.08-0.5-0.51-0.47
		c-0.89,0.03,2.23-0.97,0.07-0.79c0.54-1.4-0.38-2.35,0.64-4.06c-0.01-0.39,0.07-0.79,0.57-0.61c0.78-0.23-0.46-1.66-0.08-2.26
		c0.19-0.21,0.79,0.17,0.97-0.33c-0.01-0.39-1.29-0.25-1-0.46c0.1-0.1,0.97-0.53,0.97-0.53c0.08-0.5-0.7-0.27-0.49,0.02
		c-1.37,0.25,1.12-1.71-0.56-1.75c-0.04-0.98,1.08-0.14,0.98-0.04c0.68-0.32-0.24-1.17,0.3-2.67l0.88-0.03
		c-0.02-0.49-0.6-0.37-0.9-0.46c0.26-0.99-0.8-3.12,0.79-2.69c0.27-0.8-0.33-0.87-0.92-0.85c0.27-0.7,0.75-1.11,1.42-1.43
		c-0.36-1.76,0.8-2.29,0.34-4.05c1.66-0.45-0.25-1.56,1.29-2.31c-0.71-0.66-0.23-0.88-0.07-1.77c-0.01-0.29-0.22-0.68-0.04-0.98
		c0,0,0.4,0.08,0.39-0.01c0.44-1.3,0.18-3.26,0.46-3.46c0-0.1,0.7,0.37,1,0.36c0-0.1,0.07-0.79,0.48-0.41
		c-0.02-0.59-0.61-0.47-1-0.55c-0.44-1.36,0.74-1.31,0.4-2.58c0.91,0.66,0.59-0.12,1.77-0.07c-0.02-0.59-0.71-0.47-1.3-0.54
		c1.15-0.93,0.19-5.62,2.2-4.51c-1.44-1.72-0.52-0.67-0.39-2.55c0.59-0.02,0.89,0.16,1.09,0.25l0.27-0.8
		c-0.3-0.19-0.71-0.47-0.91-0.75c0.39-0.21,0.16-0.99,0.34-1.39c0.09-0.2,0.97-0.33,1.06-0.53c-0.01-0.2-0.62-0.76-0.54-1.26
		c0-0.1,0.76-0.82,0.85-0.92l-0.02-0.49c-0.21-0.38-0.62-0.67-0.44-1.36l0.2-0.01c-0.13-0.98-0.27-1.86,0.01-2.46
		c0.52-1.79,1.25-3.39,1.38-5.37c1.36-0.64,1.69-2.13,2.03-3.62c-1.87-2.69-6.09,0.52-9.19-0.74c-0.4-0.28-0.82-0.76-1.12-0.94
		c-0.91-0.66-1.75-2.1-3.82-2.03c-0.12-0.59-0.37-2.05-1.26-2.02c-1.18-0.05-0.25-1.47-1.16-2.02c0,0-0.39,0.11-0.39,0.01
		c-0.3-0.19,0.06-0.99-0.04-1.08c-1.01-0.65-0.99-0.16-1.16-2.02c0-0.1,0.06-0.99-0.04-1.08c-0.3-0.09-1.69-0.43-1.35-2.02
		c2.87,0.29,3.6-1.22,5.96-1.3c-0.18,0.4-0.46,0.9-0.43,1.59c0.59-0.12,0.26-0.9,1.05-0.93c0.59,0.08,0.25-1.09,0.45-1.2
		c0.69-0.12,1.37,2.31,1.16-0.54c1.7,0.73,5.23-2.26,8.04-0.89c0.09-0.1-2.32-1.39-0.03-0.89c0.1,0,2,0.72,2.66-0.1
		c0.56-0.71,3.37-2.09,4.8-0.77c0.58-0.42,0.56-0.81,1.14-1.12c-0.29,0.11,0.32,0.77,0.61,0.47c0.1-0.1,1.53-1.14,2.52-1.17
		c1.18,0.05,1.77-0.07,1.81,1.02c0.49-0.02,0.26-0.99,0.34-1.49c2.65-0.2,4.41-0.56,7.55-0.77c1.67-0.16,3.12-0.81,4.4-0.75
		c1.08-0.04,1.67-0.16,1.61,1.02c0.68-0.22,0.55-1.1-0.04-1.08c1.05-1.02,2.44-0.68,3.81-0.73c0.2-0.01,2.84-0.4,3.25-0.12
		c0.42,0.58,0.2,0.19,2.16-0.08c0.59-0.02,1.38,0.05,2.06-0.08l0.08,2.07c1,0.46,0.9-2.4-0.08-2.07c0.34-1.59,3.16,0.28,3.72-0.63
		c0.56-0.71,0.3,0.09,0.59-0.02c0.39-0.01,0.67-0.62,0.67-0.62c0.59,0.08,2.3,1,4.74,0.42c1.04,1.54,3.12,1.86,3.97,3.5
		c1.66-0.36,1.61,0.93,3.27,0.47c0.52,0.67,1.06,2.03,2.24,1.98c0.89,0.07,1.41,0.74,2.13,1.6c0.3,0.19,0.01,0.39,0.6,0.37
		c0.69,0.07,1.11,0.75,1.14,1.53c-0.06,0.99,1.1,0.55,1.62,1.12c0.5,0.28,0.44,1.26,1.23,1.33c0.08,2.07-0.56,3.47-1.01,4.76
		c-7.2-0.33-14.81-0.93-22.66-0.15c-0.98,0.04-0.97,0.43-1.65,0.55c-1.47,0.15-2.76,0-4.23,0.16c-3.92,0.44-7.81,1.96-11.35,2
		c0.2,2.65,0.4,5.4-0.12,7.39c-0.19,0.2,0.03,0.79,0.03,0.88c-0.19,0.11-0.69,0.03-0.69,0.03c-0.26,1.09-0.01,2.46-0.47,3.17
		c-0.08,0.4-0.78,0.32-1.06,0.53c-0.09,0.3,0.33,0.97,0.04,1.18c-0.38,0.41-0.74,1.21-1.11,2.01c0.1,0.09,0.4,0.18,0.79,0.07
		c-1.52,1.53-0.46,3.46-0.9,4.96c0.01,0.2-0.78,0.32-0.77,0.52c-0.35,1.1,0.17,1.87-0.39,2.67l-0.47,0.51
		c-0.36,0.8-0.03,1.77-0.39,2.67l-0.28,0.4c0.01,0.29,0.12,0.59,0.03,0.79c-0.09,0.2-0.48,0.21-0.68,0.32l0.17-0.8
		c-0.09,0.1-0.29,0.21-0.29,0.21c-0.09,0.2,0.02,0.49,0.03,0.69c-0.1,0-0.1,0.1-0.1,0.1c-0.27,0.7,0.25,1.57,0.08,2.16
		c-0.09,0.3-0.95,0.83-0.95,1.02c-0.16,0.89,0.18,2.06,0.12,3.15c-0.4-0.28-0.8-0.46-1.49-0.34
		C382.29,159.82,383.46,159.58,383.47,159.77z M356.05,116.07c0.14,1.18-2.58-0.4-1.72,1.44
		C355.43,117.87,357.13,116.03,356.05,116.07z M356.09,189.05c-0.16,0.89-0.87,0.43-0.54-1.36
		C355.89,186.5,356.17,188.75,356.09,189.05z M365.15,189.11c0.63,1.16-1.41,1.92,0.08,2.26c-0.01-0.2,0.08-0.5,0.48-0.41
		c-0.08,0.59,0.16,1.67,0.33,0.88C365.71,191.06,365.85,189.57,365.15,189.11z M368.28,196.58c0.15,1.37-3.64,0.13-0.98,0.04
		L368.28,196.58z M366.84,149.55c0.1,0.1,0.3,0.19,0.59-0.12L366.84,149.55z M367.16,147.47l0.2-0.01c0-0.1,0.09-0.2,0.08-0.4
		L367.16,147.47z M368.55,193.12c0-0.1,3.56,0.46,3.47,0.56C373.06,192.66,368.42,192.34,368.55,193.12z M370.98,112.37l0.01,0.39
		c-0.29,0.11-2.06,0.27-1.65,0.55C370.06,113.98,372.96,112.5,370.98,112.37z M384.9,153.32c0,0,0-0.1,0.09-0.1
		c0,0.1-0.09,0.2-0.09,0.2L384.9,153.32z M384.91,153.42l0.01,0.2L384.91,153.42z M397.34,108.74c1.02,0.85,1.67-0.26,2.12-1.16
		C398.48,107.61,397.61,108.04,397.34,108.74z M399.03,109.07c1.68,0.13,1.51-1.63,0.93-1.51
		C399.76,107.57,399.31,108.86,399.03,109.07z M411.42,106.05c-0.16,0.89,0.34,1.27,0.95,1.64
		C412.53,106.7,412.02,106.33,411.42,106.05z"/>
	<path class="st5" d="M417.27,123.07c-0.08,0.59-0.35,1.1-0.03,1.97c0.59-0.02,0.06-1.09,0.15-1.38c0.47-0.61,1.79,0.43,2.63-0.79
		c-1.03-1.34,0.97-3.09-1.16-2.12c1-2.3,3.36,0.27,5.01-0.38c0.31,0.29,0.41,0.58,0.53,0.97c0.37-0.6,1.05-0.93,1.83-1.15
		c0.42,0.67,1.02,0.85,1.99,0.62c0.22,0.58,0.87,2.23,1.74,1.91c0.88-0.23,0.64,1.35,0.34,1.27c0.8,0.27,0.1,0.1,0.48-0.31
		c0.29-0.11,0.78-0.13,0.98-0.23c1.03,1.24-2.08,2.24,0.45,1.56c-0.46,1,0,2.66-1.37,3c0.24,1.07,0.87,2.23,0.19,2.55
		c0.84,1.54,0.33-1.59,1.82-1.35c-0.2,2.47,2.44-0.68,2.23,1.69c1.93-1.06,3.17,0.57,4.47,1.12c0.4,0.18,1.18-0.14,1.58,0.04
		c0.2,0.09,1.5,0.73,1.6,0.73c0.11,0.39-0.31,2.18,0.22,0.68c1.29,0.15,2.31,1.1,3.33,2.04c0.5,0.28,1.4,0.64,2.11,1.2
		c0.29-0.01,0.04,0.98,0.33,1.07c0.3,0.18,0.99,0.06,1.19,0.35c0.2,0.09,0.04,1.08,0.23,0.98c0.2,0.09,0.49-0.12,0.49-0.12
		c0.21,0.29,0.24,1.07,0.44,1.17c0.2-0.01,0.58-0.22,0.58-0.22c0.1,0.09,0.13,0.98,0.24,1.27c0.2,0.09,1.18-0.04,1.19,0.15
		c0.61,0.47,0.17,1.96,1.14,1.63c0.42,0.58-0.97,0.53-0.86,0.82c-0.19,0.3,1.42,1.23-0.34,1.39c0.21,0.39,0.7,0.37,1.11,0.75
		c0.24,1.17-0.88,2.79,0.57,2.25c0.03,0.88-1.05,0.92-1.63,1.24c0.03,0.79,1.18,0.05,1.29,0.25c0.51,0.47-0.37,0.7-0.37,0.7
		c0.03,0.69,0.71,0.57,0.71,0.57c0.11,0.29-0.17,0.7-0.16,1.09c0.14,1.08,1.07,2.23,0.1,2.66c0.13,0.78,0.33,0.87,0.82,0.86
		c0.44,1.26-1.84,0.96-2.4,1.57c0.14,1.18,0.57,2.15,1.75,2c0.02,0.49-0.48,0.31-0.49,0.12c-0.68,0.22-0.46,0.8-0.44,1.3
		c-0.49,0.12-0.98,0.23-1.46,0.35c1.72,1.22-0.86,0.82,0.09,2.56c-0.38,0.41-0.63-0.96-0.83-1.05c-0.59,0.02-0.15,1.29-0.24,1.39
		c0.01,0.2-1.07,0.33-1.07,0.33c0.13,0.78,2.76,0,1.41,0.74c-0.28,0.31-0.88,0.13-1.16,0.54c-0.38,0.41-0.53,1.6-0.2,2.47
		c-1.46,0.45-1.53,1.34-1.88,2.43c-0.29,0.01-0.6-0.27-0.99-0.16c0.58,2.34-0.55,3.86-2.08,5c1.24,1.53-0.43,1.79-0.88,2.79
		c-0.19,0.3-0.06,1.08-0.15,1.29c-0.29,0.21-1.18,0.14-1.17,0.34c-0.45,1.1-0.74,1.31-1.69,2.33c-0.37,0.7-0.62,1.8-1.09,2.4
		c-0.47,0.51-1.26,0.54-1.82,1.25c-0.96,0.82-0.46,0.9-1.91,1.75c-0.38,0.31-1.89,2.14-3.26,2.39c-0.08,0.59,0.22,0.48,0.61,0.47
		c0.33,1.07-1.85,0.66-1.65,0.65c-0.29,0.21-0.16,1.09-0.25,1.09c-0.19,0.11-1.09-0.16-1.58-0.04c-0.49,0.12-1.93,0.96-2.12,1.36
		c-0.36,1-2-0.81-2.63,0.79c-0.37,0.7-0.09,0.3-0.98,0.23c-0.78,0.13-1.45,0.74-2.13,0.87c-0.88,0.13-1.09-0.26-1.68-0.04
		c-2.06,0.27-2.92,0.99-4.89,0.97c-0.2-0.09-0.51-0.47-0.8-0.36c-0.39,0.01-0.78,0.32-1.07,0.33c-0.2,0.01-1.11-0.84-1.42-1.03
		c-0.39,0.01-1.15,0.83-1.55,0.65c-0.2-0.09-0.23-0.98-0.34-1.07c-0.2-0.19-0.78,0.32-1.07,0.33c-0.5-0.28-1.03-1.14-1.63-1.42
		c-0.3-0.18-1.27,0.25-1.68-0.13c-0.1-0.1-0.03-0.79-0.33-1.07c-0.2-0.09-0.77,0.52-1.07,0.43c-0.2-0.19-0.04-1.08-0.34-1.17
		c-0.41-0.38-1.89-0.42-2.7-1.08c0-0.1-0.04-1.08-0.24-1.17c-0.1,0-1.09-0.06-1.19-0.15c-0.11-0.19-0.04-0.98-0.34-1.17l-0.48,0.21
		c-0.2-0.19-0.24-1.17-0.34-1.17c-0.3-0.09-1.33-1.23-2.33-1.69c0.17-0.7,0.25-1.19,0.93-1.51c-0.43-1.07-2.06,0.18-2.58-0.5
		c-0.52-0.67,0.44-1.3,0.03-1.97c0,0-0.55,1.2-0.97,0.43c-0.2-0.19-0.16-1.57-0.46-1.66c-0.91-0.56-0.73-1.06-1.38-2.8
		c-0.21-0.48-1.01-0.55-1.03-1.34c2.69,0.79-1.43-1.33,1.12-1.81c-0.12-0.49-0.8-0.27-1.09-0.26c0.67-3.27-2.02-4.06-2.64-7.39
		c1.76-0.36,0.33,0.97,1.75,2.1c0.58-0.32,0.05-1.38-0.44-1.17c0.27-0.6,0.43-1.79-0.46-1.66c-0.24-1.27,2.23-0.97,2.39-1.96
		c-0.64-1.45-0.75,1.01-2.24,0.67c-0.34-1.17-0.77-2.24-1.02-3.51c0.69-0.03,0.73,1.06,1.41,0.83c0.58-0.32,0.06-1.18,0.83-1.51
		c-0.52-0.77-1.97,0.07-1.84-1.9c0.58-0.22,0.71,0.47,1.02,0.85c0.59-0.12,0.07-0.69,0.25-1.19c0.5,0.28,0.91,0.66,1.43,1.42
		c0.58-0.42,0.15-1.38-0.35-1.37c-0.53-1.06,2.03-0.96,1.69-2.33c-0.24-1.07,1.56-0.55,0.3-2.47c0.96-0.63,1.12-1.72,1.68-2.52
		c-0.12-0.59-1.21-0.64-1.41-0.74c-0.42-0.77,0.78-0.23,1.17-0.44c0.19-0.3-0.67-2.04,0.51-2.09c1.28-0.05-1.23,1.42-0.39,2.67
		c1.86-0.27,0.7-2.39,2.56-2.75c0.03-1.77-1.13-1.24-1.28-2.71c1.39,0.24,0.93-1.41,1.58-2.42c0.29-0.21,1.08-0.04,1.07-0.33
		c0.36-0.9,0.84-1.21,1.68-2.43c0.75-0.91,1.16-3.29,2.66-2.66c-0.11-0.29-0.23-0.78-0.24-1.17c-0.04-1.08,0.49,0.08,0.92,0.95
		c-0.67,0.52-0.94,1.12-0.71,2.09c1.14-1.03,1.19-2.6,0.42-4.64c0.79,0.17,1.42,1.13,1.75,2c1.27-0.34-0.27-2.06-0.21-3.05
		c1.36-0.44,3.13-0.51,2.78-2.07c1.48-0.05,2.41,1.19,2.69,3.45c1.53-1.24-0.49-2.64-0.28-4.92c-0.48,0.31-0.15,1.19-0.03,1.87
		c-0.89-0.07-1.31-0.94-1.65-1.91c2.05-0.37,2.91-1.09,2.76-2.66c0.69-0.12,0.21,0.29,0.11,0.29c0.42,0.58,1.29,0.15,1.44,1.62
		c0.84-1.21,1.79-2.33,3.23-3.17c-1.12-1.04-2.01,1.65-3.48,1.9c-1.18-2.71,1.85-0.66,0.98-2.79c0.22,0.68,3.34-0.22,1.66-0.46
		c-0.24-1.17,1.59,0.43,1.22-1.72C417.2,121.3,418.05,122.94,417.27,123.07z M389.44,169.5c2.11,1.2,1.4,3.3,2.28,5.73
		C390.33,174.88,390.29,171.24,389.44,169.5z M392.98,153.51c-0.93-1.25,0.63-1.5,0.39-2.67
		C393.95,150.33,394.47,153.75,392.98,153.51z M395.6,147.02 M418.13,178.39c3.41-1.01,4.38-4.1,7.09-5.38
		c-0.19,0.11,1.8,0.72,1.56-0.55c-0.39,0.01-1.07,0.43-1.29-0.25c1.73-1.15,1.25-0.83,2.36-0.09c0.11,0.29,0.57-0.51,0.37-0.7
		c-0.31-0.38-1.38-0.05-1.41-0.74c1.81-1.64,2.71-3.94,4.12-5.86c1,0.36,2.16-0.08,2.97,0.28c-0.84-1.35-0.76-2.04-1.65-2.01
		c0.3,0.09-0.2,2.57-1.05,1.02c0.75-1.11,1.29-2.31,2.05-3.23c0.46,1.66,1.32,1.13,0.67,2.24c1.36-0.64,2.71-1.18,2.05-3.03
		c-0.49,0.12-0.7-0.27-1.19-0.25c-0.69,0.12-0.65,1.11-1.17,0.34c1.06-0.63,0.62-1.8,1.79-2.33c0.12,0.69-0.45,1.1-0.13,1.68
		c0.59-0.12,1.28-0.05,1.68,0.23c-0.38-2.35,2.06-3.03,1.49-4.98c-0.12-0.68-0.89-0.16-1.31-0.74c0.96-0.73-0.5-2.84,0.76-3.38
		c0.41,0.48,0.93,1.15,1.43,1.52c-1.24-1.63,1.46-3.11-0.31-3.04c0.34,1.17-0.83,1.61-1.36,0.44c0.58-0.32,0.46-1,1.24-1.03
		c-0.13-0.88-0.47-2.05,0.8-2.29c0.12,0.68,0.04,0.98-0.24,1.49c-0.48,0.31,0.71,0.57,0.7,0.37c-0.21-0.29,0.07-0.89,0.59-0.12
		c0.22,0.48-0.65,1.01,0.24,1.07c0.25-1.19-0.19-2.36,1.13-1.52c-0.05-1.28-0.93-1.05-1.43-1.52c-0.03-0.69,0.55-1.2,0.52-1.99
		c-0.58,0.22-1.16,0.63-1.34,0.94c0.94-1.22-0.96-1.93-0.89-2.72c-0.01-0.2,2.01-1.45,0.24-1.39c-0.17,0.7-0.26,0.9-0.85,1.02
		c-0.24-1.07-0.72-0.76-1.41-0.83c-0.3-0.09-0.72-0.86-1.02-1.04c-0.9-0.26-2.35,0.28-3.45,0.03c-0.4-0.28-0.93-1.25-1.44-1.52
		c-1.07,0.33-1.04,1.22-2.02,1.35c-0.09,0.1-1.11-0.84-1.31-0.84c-0.68,0.12-1.33,1.23-1.44,1.14c-0.1,0-0.24-1.17-0.44-1.17
		c-0.69,0.12-1.76,0.36-2.51,1.37c-0.26-1.76-1.99-0.42-3.09-0.87c-0.34,1.59-3.99,3.99-3.75,5.16c0.22,0.68-0.09,0.3-0.27,0.7
		c-1.5,2.12-3.3,3.96-4.71,5.89c0.12,0.49,0.24,1.07,0.36,1.66c-0.58,0.32-0.45,1.1-0.64,1.4c-0.37,0.61-1.25,0.74-1.53,1.24
		c-0.37,0.8-0.03,1.77-0.3,2.57c-0.19,0.3-0.98,0.04-1.17,0.44c0.01,0.2,0.43,0.87,0.24,1.17c0.1,0-0.79-0.07-0.87,0.33
		c-0.38,0.51,0.46,1.76-0.62,1.99c0.12,0.68,0.35,1.46,0.57,2.14c-0.44,1.49-1.74,3.61-1.61,4.39c0.24,1.27-0.22,2.08-0.18,3.16
		c0.06,1.57,0.14,3.74-0.03,4.43c0.01,0.2,0.21,0.39,0.32,0.58c0.12,0.49-0.56,0.71-0.56,0.81c0.15,1.27,1.07,2.42,1.23,3.99
		c0.49-0.02,0.8,0.27,0.92,0.95c1.28-0.05,2.34-0.68,2.74-0.4c0.61,0.47,1.93-1.05,2.02-1.26c0.58-0.41,0.62,0.77,1.07-0.33
		c0.07-0.69,5.24-2.06,4.52-0.27c-0.42-0.58-2.85,0.2-1.07,0.43c0.68-0.32,1.1,0.45,1.78,0.13
		C418.48,179.95,418.26,179.17,418.13,178.39z M409.9,131.62c-1.78-0.23-0.77,3.08,0.2,2.75
		C409.56,133.11,410.34,132.88,409.9,131.62z M421.76,124.58c-0.91-0.75-2.22,1.26-1.92,1.45
		C420.24,126.21,422.07,125.06,421.76,124.58z M424.49,174.51c-0.97,0.33-1.25,0.83-1.42,1.63
		C424.14,175.9,424.42,175.3,424.49,174.51z M424.75,173.71c0,0,0.28,2.16-0.03,1.87C426.44,176.7,425.52,173.19,424.75,173.71z
		 M428.97,167.94c-1.32,1.53,2.77,0.29,1.46-0.45C430.43,167.49,429.07,167.84,428.97,167.94z M438.47,142.48
		c0.16,1.67-1.66,0.46-1.41-0.74C437.65,141.62,437.69,142.6,438.47,142.48z M439.17,145.41c0.25,1.37-1.58-0.14-1.53-1.42
		C438.52,143.85,438.39,145.63,439.17,145.41z M438.14,157.46c-1.52,1.53,1.94-0.76,1.34-0.94
		C438.88,156.15,438.14,157.46,438.14,157.46z M438.08,153.13c0.33,1.07,0.85,1.74,1.65,1.91
		C439.2,154.17,439.32,152.2,438.08,153.13z M438.84,157.83c-1.18,2.8,2.58,0.59,0.73,1.06
		C438.59,159.12,439.53,157.8,438.84,157.83z"/>
	<path class="st5" d="M493.6,125.96c0.94,1.44,1.41-1.92-0.55-1.46c-0.01-0.3,0.67-0.62,0.96-0.53s0.43,0.97,0.53,0.96
		c0.29-0.01,1.29-2.31,1.48-0.05c1.19,0.15-0.38-2.25,1.32-1.53c0.41,0.48-0.38,0.41-0.38,0.51c-0.36,1,1.53,1.32-0.44,1.49
		c0.66,1.75,1.56-0.45,1.95-0.56c0.58-0.22,0.31,0.38,0.51,0.47c0.2,0.09,1.93-0.96,2.4-1.57c-0.32-0.68-0.49,0.12-1.08,0.04
		c-0.08,0.5-0.87,0.33-0.85,1.02c-0.41-0.38-1.1-0.45-2.08-0.41c-0.03-0.89,1.16-0.63,1.54-1.04l-0.02-0.49
		c0.3-0.01,0.51,0.57,1,0.45c0,0,2.32-1.17,2.42-1.07c0.21,0.39,0.31,0.48,0.49-0.02c1.48,0.04-2,1.85,0.09,2.46
		c0.68-0.22-0.11-0.39-0.04-0.98c0.08-0.4,0.38-0.51,0.36-1c1.08-0.14,1.58,0.04,1.61,0.92c0.59-0.12,0.04-1.48,0.83-1.51
		c0.17-0.6,0.48-0.31,0.49-0.02c-0.39,0.01-0.27,0.6-0.46,1c0.49-0.02,0.99,0.06,1.47-0.05c0.39-0.01,1.16-0.53,1.06-0.53
		c1.28,0.05,1.74,1.81,2.99,0.87c0.05-1.18-2.25,0.28-1.63-1.42c-0.69,0.03-1.28,0.05-1.87,0.07c-1.06,0.53-1.16,0.54-0.61-0.47
		c1.08-0.04,1.97-0.07,2.95-0.11c-0.22,2.08,1.84-0.76,2.02,1.4c0.59-0.12,0.26-0.99,0.95-1.02c0.51,0.47,2.07-0.08,2.48,0.4
		c0.1,0.09-0.16,0.89,0.04,0.98c0.3,0.09,0.86-0.82,1.46-0.55c0.2,0.09-0.05,1.28,0.53,0.97c0.59-0.12,0.18-0.5-0.02-0.49
		c0.17-0.7,0.4,0.08,0.98-0.04c0.91,0.66,2.02,1.3,3.5,1.35c0.31,0.38,0.52,0.77,0.55,1.46c0.69-0.03,0.99,0.16,1.49,0.44
		c1,0.36,1.81,0.92,3.02,1.86c0.2,0.19-0.08,0.5,0.51,0.47c0.29-0.01,0.91,0.56,0.92,0.95c0.12,0.68,0.79,0.07,1,0.46
		c0.31,0.38,0.43,1.07,0.64,1.45c0.63,1.16,1.45,1.82,1.98,2.88c0.54,1.26-0.64,1.21-0.4,2.38c0.49-0.02,0.37-0.61,0.46-1
		c0.11,0.19,1.12,0.85,1.12,0.94c0.02,0.49-0.57,0.51-0.55,1.1c0.25,1.37,0.43,1.07,0.09,2.36c-0.08,0.59-0.04,1.48-0.42,1.99
		c-0.09,0.2-0.87,0.33-0.87,0.53c-0.19,0.3,0.13,0.78,0.04,0.98c-0.09,0.1-1.46,0.54-2.03,1.06c-0.38,0.41-0.55,1.2-0.83,1.51
		c-0.38,0.41-1.08,0.14-1.46,0.55c-0.19,0.11-0.36,0.9-0.55,1c-0.48,0.31-1.39-0.34-1.36,0.54c-0.07,0.69-2.33,0.97-3.39,1.5
		c-0.38,0.31-0.75,1.01-0.94,1.12c-0.87,0.43-1.77,0.07-2.93,0.6c-0.19,0.11,0.01,0.39-0.47,0.51c-0.1,0-0.4-0.08-0.49,0.02
		c-0.29,0.21-0.66,0.91-0.95,0.92c-0.19,0.2-0.88,0.03-0.98,0.04c-0.28,0.5-0.38,0.41-0.96,0.63c-0.68,0.12-2.15,0.57-2.92,1.09
		c-0.48,0.31-0.68,0.32-1.46,0.55c-0.39,0.11-0.87,0.33-1.46,0.55c-0.39,0.11-0.77,0.32-1.46,0.45c-0.39,0.21-0.87,0.43-1.36,0.54
		c-2.63,0.79-6.7,2.61-8.72,3.77c-0.36,0.8,0.83,1.25,1.06,1.93c0.22,0.58-0.15,1.38,0.08,2.07c0.23,0.78,0.66,1.85,1,2.92
		c0.31,0.48,1.12,1.04,1.15,1.83c0.02,0.49,0.04,0.98,0.53,0.97c0.69,0.07-0.08,0.59,0.55,1.46c0.21,0.29,0.82,0.76,0.92,0.95
		c0.42,0.67,0.26,1.67,0.58,2.44c0.21,0.29,0.59-0.12,0.61,0.47c0.03,0.79,0.62,0.67,1.06,1.93c0.11,0.29,0.54,1.26,0.96,1.93
		c0.41,0.48,1.21,0.84,1.63,1.42c0.31,0.38,0.26,1.76,0.05,1.38c0,0,0.13,0.88,0.51,0.57l-0.02-0.59c1.69,0.53,2.65,2.36,3.08,3.43
		c2.14-0.67,1.16,2.12,3.39,1.25c0.26,1.76,1.45,1.82,0.62,3.42c-2.29,1.86-5.81,2.58-8.29,2.28c0.1,0.1-0.21-0.38-0.51-0.37
		c-0.1-0.09-0.69,0.03-0.89,0.03c-0.1-0.09,0.55-1.1,0.45-1.1c-0.3-0.09-1.26,0.64-2.05,0.57c0,0,0.06-0.99-0.04-0.98
		c-0.59-0.08-0.18,0.4-0.47,0.51c0.1,0-3.77-0.75-3.02-1.76c-2.32,1.07-4.5-1.8-6.4-2.72c0.23-1.68-0.94-1.54-0.09-2.46
		c-1.66,0.45-0.06,1.08-0.91,2c-1.5-0.73,0.31-2.28-0.13-3.54c-0.66,0.71-1.19,2.41-2.42,1.17c0.36-1,0.98-0.13,1.47-0.05
		c0.01-2.46-1.69-0.53-2.52-1.48c-0.23-0.98,0.25-1.19,0.42-1.89c-0.61-0.57-1.15,0.83-0.85,1.02c-0.2-0.09-1.02-1.04-0.55-1.46
		c0.66-0.81-0.58,0.32-1.61-1.02c-0.13-0.98,0.34-1.49,1.52-1.43c-0.22-0.58-1.1-0.45-1.08,0.04c-0.7-0.27-1.31-0.74-1.9-0.92
		c-0.34-1.27-0.75-1.74,0.4-2.48c-0.43-1.07-0.86,0.62-1.59-0.43c-1.22-1.04,1.2,0.45,1.56-0.55c-0.54-1.26-2.79-0.78-2.19-3.37
		c-0.59,0.02-1.28,0.05-1.87,0.07c-0.32-0.68-0.24-1.27-0.66-1.84c-0.12-0.59-0.81-0.66-0.93-1.05c-0.32-0.68-0.19-2.36-1.56-2.31
		c-1.09-0.06-0.55,1.2-0.46,0.9c-0.27,0.6-1.14,1.13-1.42,1.53c-0.37,0.7-0.05,1.38-0.42,1.99c-0.09,0.2-0.34,1.39-0.44,1.49
		c-0.76,0.62,0.14,0.98-0.4,2.48c-0.09,0.3-0.87,0.33-0.97,0.53c-0.19,0.3,0.03,0.69,0.04,0.98c0,0-0.44,1.39-0.44,1.49
		c-0.1,0-0.5-0.08-0.49,0.02c-0.09,0.2,0.23,0.88,0.04,0.98c-0.1,0-0.49,0.02-0.49,0.02c-0.1,0.1,0.23,0.88,0.04,0.98
		c-0.67,0.62,0.13,0.78-0.4,2.48c0,0.1-0.97,0.33-0.97,0.53c-0.35,1.29,0.09,2.36-0.35,3.95c-0.09,0.2-0.49,0.02-0.48,0.41
		c0.01,0.29-0.12,2.17-0.4,2.48c0,0.1-0.49,0.02-0.49,0.02c-0.42,1.99,0.57,4.9-1.79,4.99c-0.07,0.89,0.63,1.06,0.56,1.95
		c-0.29,0.01-0.69,0.03-0.98,0.04c-0.47,0.51-0.95,1.02-1.42,1.53c-0.6-0.18-0.72-0.86-1.51-0.93c-0.49,0.12-0.28,0.5,0.02,0.49
		c-0.17,0.79-0.9-0.36-0.87,0.52c-1.28,0.05-0.67-2.04-2.51-1.38c-0.41-0.38,0.35-1.1,0.36-1c-0.42-0.77-2.01-1.11-2.53-1.88
		c-0.31-0.48-0.55-1.46-0.05-1.38c-0.71-0.56-1.33-1.23-1.95-2c-0.64-1.45,0.55-3.66,0.86-3.38c0.82,0.76,0.47-0.51,0.83-1.61
		c-0.38,0.31-0.64,1.4-0.86,0.62c-0.98,0.04-1.15,0.83-0.91,1.91c-1.6-0.63-1.47-5.26-0.74-6.77c1.04-1.22-0.26,0.99,0.07,1.97
		c0.64,1.26,1.63,1.42,2.89,0.88c-0.04-0.98-1.39-0.24-1.43-1.42c-0.13-0.78-0.69,0.03-0.47,0.51c-1.12-1.04,1.17-3.1,0.29-5.43
		c-0.68,0.22-0.35,1.2-0.42,1.99c-0.74,1.21-1.14-4.19,0.76-3.47c0.2-0.01-1.34-1.72-0.48-2.44c0.76-0.72,0.52-1.99,0.76-3.38
		c0-0.1,0.71,0.56,0.52,0.87c0-0.1,0.49-0.12,0.57-0.51c0.15-1.19-1.12-0.94-0.07-1.97c0.19-0.21,0.11-2.47,0.38-2.97
		c0.19-0.3,0.65-1.01,0.4-2.48c0.57-0.61,0.78-0.13,1.38-0.05c-0.42-0.58-0.64-1.26-0.58-2.34c0.88-0.23,0.9,0.36,1.59,0.43
		c0.07-0.89-0.53-0.96-1.12-0.94c0.58-0.42,0.15-1.29,0.42-1.98c0.08-0.4,0.86-0.82,0.95-1.02c0.54-1.3-0.12-3.34,1.4-2.02
		c-1.37-2.51,1.49-4.88,1.69-7.45c-0.22-0.58-1.1-0.45-1.51-0.93c-0.41-0.38-0.06-1.57-1.04-1.44c-0.03-0.79,0.23-1.88-0.56-1.95
		c0.27-0.6,0.65-1.01,1.44-1.04c-0.04-0.98,0.44-1.49,1.42-1.53c-0.21-0.38-0.43-0.87-0.92-0.95c-0.02-0.49,2.19-1.95,1.87-0.07
		c1.46-0.35-0.53-0.96-0.07-1.87c0.57-0.51,0.9,0.46,1,0.46c0.79-0.03-0.03-0.69-0.02-0.49c0,0,0.55-1.1,0.45-1.1
		c0.78-0.13,1.05,1.83,2.48,0.4c-0.26-1.67-1.82,1.45-1.51-0.93c1.38,0.05,0.95-0.82,1.97-0.07c0.09-0.3-0.23-0.98-0.05-1.38
		c0.09-0.2,0.88-0.03,0.98-0.04c0.19-0.21-0.23-0.88-0.04-1.08c0.2-0.01,0.89,0.16,0.98-0.04c0.36-0.8-0.26-1.76,0.28-2.96
		c0.5,0.28,0.91,0.56,1.6,0.53c-0.02-0.49-0.6-0.37-1-0.55c-0.32-0.58,0.37-0.7,0.46-0.9c0.08-0.5,0.04-1.68,0.42-1.99
		c0.19-0.2,0.6,0.27,0.51,0.47c0,0,0.88-0.23,0.47-0.51c-1.42-1.03,0.36-1,0.91-2c0.55-1.01-0.2-2.75,1.37-3.01
		c-0.47-2.05,1.5-2.12,1.24-3.89c0.59-0.02,0.98-0.23,1.06-0.63c0.79,0.17,1.96-0.17,2.95-0.11c0,0,1.22,1.14,1.41,0.93
		c0.76-0.82,0.01,0.2,0.51,0.47c0.4,0.28,1.07-0.24,1.57-0.06c0.2,0.19,0.62,0.77,0.92,0.95c0.4,0.18,1.19,0.25,1.49,0.44
		c0.51,0.38,0.14,1.08,0.55,1.46s1.09,0.16,1.49,0.44c0.2,0.19-0.16,0.89,0.04,0.98c0.1,0.09,1,0.36,1,0.45
		c0.42,0.67-0.23,1.78,1.04,1.44c0.23,0.98-0.35,1.29-0.42,1.98c1.6,0.53,0.33-1.69,1.93-1.06
		C494.19,125.94,493.89,125.95,493.6,125.96z M458.77,180.14c-0.02-0.59-0.14-1.08-1.02-0.85c0.12,0.59-0.05,1.38,0.54,1.36
		C458.38,180.45,458.37,180.05,458.77,180.14z M457.99,172.38c0.03,0.79,0.54,1.26,1.14,1.44
		C459.1,173.03,458.59,172.56,457.99,172.38z M462.26,141.3c-0.49,0.12-0.65-1.55,0.93-1.51C463,140,462.55,141.29,462.26,141.3z
		 M482.01,169.53c0.07-0.89,0.8,0.27,0.87-0.52c-1.28-0.05,0.4-2.38-0.96-1.94c-0.29,0.11,0.04,1.18-0.45,1.1
		c-0.73-1.16,1.21-1.92-0.08-2.07c-0.09,0.3-0.08,0.59-0.47,0.51c-0.12-0.49-0.93-1.15-1.1-0.45
		C480.93,167.01,480.81,168.98,482.01,169.53z M482.5,171.97c-0.19,0.21-0.54-1.16-0.92-0.95
		C482.3,169.32,482.88,171.66,482.5,171.97z M483.75,149.87c0.29-0.11,0.89-0.03,0.87-0.52c-1.99-0.52-0.99,2.4-0.36,1
		C483.86,150.35,483.66,150.26,483.75,149.87z M487.08,146.79c-0.79,0.03-1.07,0.33-1.56,0.55c-0.01-0.29-0.03-0.69-0.04-0.98
		c1.16-0.63,2.4,0.99,2.46-0.09c-0.3-0.09-0.5-0.28-0.02-0.49c2.03-0.96,2.56-0.09,2.97,0.38c-0.39-2.55,1.04-1.02,1.46-0.55
		c-0.03-0.69-0.24-1.07-0.55-1.46c0.68-0.22,1.5,0.73,1.47-0.05c0.07-0.89,1.27-0.24,1.95-0.56c0.29-0.11,0.35-1.1,0.95-1.02
		c1.19,0.15,1.87-0.07,2.45-0.48c0.02,0.49,0.91,0.56,0.98-0.04c-0.29,0.01-0.61-0.47-0.02-0.59c1.33-1.23,1.91,0.92,2.46-0.09
		c-0.39,0.01-0.6-0.37-0.63-0.96c3.95,0.25,4.74-2.24,7.37-3.23c0.02,0.49-0.47,0.61-0.46,1c1.58,0.04,0.91-1.9,2.29-1.96
		c0.67-0.52,1.85-0.56,1.91-1.65c-4.62,0.37-9.58,2.03-13.09,2.94c-0.68,0.22-0.97,0.43-1.55,0.55c-0.58,0.22-0.59,0.12-0.87,0.52
		c-0.19,0.21-0.88,0.03-0.98,0.04c-0.1,0,0.12,0.49,0.02,0.59c-0.1,0-0.79-0.07-0.98,0.04c-0.68,0.22-1.25,0.73-1.93,0.96
		c-0.87,0.33-1.37,0.25-1.95,0.57c-1.15,0.83-2.81,1.19-3.38,1.7c-0.77,0.52-1.94,0.86-2.41,1.47c-0.19,0.3,0.24,1.17,0.05,1.48
		c-0.09,0.2-0.78,0.32-0.97,0.53c-0.26,0.9-0.21,2.17-0.28,2.96c0.99,0.16,0.96-0.72,1.34-1.03
		C486.02,147.42,486.71,147.39,487.08,146.79z M486.06,175.29c-0.59,0.12-1.38-0.05-1.36,0.54c0.59,0.08,0.82,0.76,1.41,0.93
		C486.1,176.27,486.08,175.78,486.06,175.29z M487.78,179.07c-0.01-0.2-0.02-0.59-0.03-0.89c-0.39,0.01-0.69,0.03-1.08,0.04
		c0.01,0.29,0.03,0.69,0.03,0.89C487.09,179.09,487.39,179.08,487.78,179.07z M490.48,148.14c0.23-1.68-0.85-1.74-2.04-1.89
		c-0.34,1.39,1,0.55,1.51,0.93C490.16,147.36,489.89,148.26,490.48,148.14z M494.81,145.52c-0.29,0.01-0.92-1.05-1.02-0.95
		c-0.28,0.31,0.43,0.97,0.53,0.96c0.2,0.09,0.82,0.96,1.49,0.44C496.1,145.67,495.01,145.61,494.81,145.52z M495.31,185.68
		c-0.29,0.01-0.69,0.03-0.98,0.04s-0.49,0.12-0.47,0.61c0.59-0.02,0.52,0.77,1.02,0.85C494.85,186.49,495.04,186.18,495.31,185.68z
		 M495.35,186.76c0.12,0.59,0.24,1.07,1.02,0.85C497.05,190.05,496.71,186.32,495.35,186.76z M502.14,143.77
		c-0.02-0.49-0.04-0.98-0.05-1.48c-0.39,0.01-0.69,0.03-1.08,0.04c0.02,0.49-0.27,0.6-0.36,1
		C501.33,143.31,501.64,143.59,502.14,143.77z"/>
	<path class="st5" d="M579.25,117.19c0.2,0.09,0.5,0.08,0.89,0.06c-0.44,1.4-0.67,0.52-1.95,0.56c-0.16,1.09,1.49,0.44,1.53,1.32
		c0.49-0.12,0.36-1,0.95-1.02c0.07-0.89-0.44-1.26-1.04-1.44l-0.39,0.01c0.38-0.31,0.67-0.52,0.64-1.21
		c0.3,0.09,0.32,0.58,0.33,0.87c0.5,0.08,1.09,0.26,1.35-0.74c0.6,0.27,0.11,0.39,0.03,0.79c-0.2,0.01-0.39,0.11-0.59,0.12
		c0.2,0.09,0.3,0.19,0.31,0.38c0.09-0.1,0.19-0.2,0.29-0.21c0.41,0.48,0.54,1.16,0.56,1.85c0.79,0.07,0.35-1.1,0.32-1.98
		c0.7,0.17,1.2,0.54,1.25-0.74c0.51,0.38,2.81,1.37,1.59,0.43c0.34-1.39,0.9,0.46,0.9,0.46c0.3,0.09,0.87-0.52,1.46-0.55
		c0.49-0.02,0.81,0.66,1.49,0.44c0.02,0.59-0.58,0.41-0.86,0.62c0.53,1.06,1.07-0.24,1.87-0.07c0.49-0.02,0.85,1.74,2,0.81
		c-0.53,1.59,1.59,0.33,1.06,1.93c1.46-0.45,0.65,1.65,2.4,0.99c-1.05,0.93-0.36,3.66,0.15,1.37c1.4,0.54,0.2,2.65-1.4,2.02
		c0.32,0.68,1.11,0.84,1.9,0.91c-0.19,0.11-0.16,0.99-0.36,1c-0.48,0.21-1-0.46-1-0.46c-0.58,0.22-0.07,0.69-0.45,1
		c-0.1,0.1-1.41-0.93-0.97,0.53c-1.4-0.54-2.7-1.08-4.86-0.81c-0.03-0.69-0.05-1.38-0.64-1.45c-0.59,0.12-0.18,0.5,0.02,0.49
		c-0.33,1.59-1.08,0.04-1.83,1.05c1.15,1.93,6.48-0.63,6.4,2.72c-0.51-0.57-1.19-0.15-0.49,0.02c0.04,0.98-0.98,0.04-0.98,0.04
		c-0.69,0.03,0.53,0.97-0.46,1c-0.39,0.01-0.41-0.48-0.51-0.47c-0.79,0.03-1.07,0.43-1.95,0.57l-0.02-0.49
		c-0.2-0.09-2.22,1.26-1-0.46c-0.89-0.17-1.47,0.15-1.34,1.03c-0.3-0.19-0.9-0.26-1.58-0.14c0,0-0.1-0.09-0.2-0.09
		c-0.49,0.02-0.89,0.03-1-0.46c-0.5-0.18-0.37,0.61-0.46,0.9c-0.1,0-0.19,0.11-0.29,0.11c-0.2-0.09-0.12-0.49-0.21-0.49
		c-0.5-0.08-0.28,0.4-0.47,0.51l0.49-0.02c-0.49,0.12-1.08,0.14-1.38,0.05l0.89-0.03c-0.2,0.01-0.59,0.02-1.09-0.06
		c0,0-0.1,0-0.1-0.09c-0.41-0.48-0.3-0.19-0.98,0.04c-0.79,0.03-1.48,0.05-1.87,0.17c-0.79-0.07-1.58-0.14-2.17-0.02
		c-0.19,0.11,0.69,0.07,1.88,0.13l-0.1,0l0.02,0.49c-0.39,0.01-4.45-0.43-4.82,0.18c-0.38,0.31-0.98,0.23-2.05,0.47
		c-0.68,0.32-2.07-0.02-2.95,0.11c-3.91,0.74-7.71,1.86-11.12,2.97c-0.56,0.91-1.53,1.34-1.37,3.01c-1.25,0.74-1.69,2.23-2.34,3.43
		c-0.24,1.39,2.35-0.38,2,0.91c0.38-0.31,0.75-0.91,0.93-1.51c0.6,0.17,0.31,0.48,0.02,0.49c0.12,0.59,1,0.36,1.02,0.95
		c0.2,0.19,2.18-2.25,3.41-1.11c0.51,0.47,0.39-0.01,1.48-0.05l0.02,0.49c1.08-0.14,2.02-1.26,2.48,0.4c0.5,0.28,0.26-0.9,0.46-1
		c-0.1,0,4.05,0.24,4.43-0.16c0.38-0.51,0.19-0.1,0.98-0.04c0.38-0.31,0.45-1.1,1.34-0.94c-0.63,1.5,1,0.46,2,0.81
		c0.4,0.18,0.43,0.87,0.53,0.96c0.2,0.09,0.88-0.13,1.08-0.04c0.31,0.38,0.61,0.57,1.4,0.44c0.61,0.57,0.32,0.78,0.05,1.48
		c2.74-0.5,2.82,1.77,4.99,1.88c0.21,0.49-0.88,0.23-0.97,0.43c-0.17,0.6,1.11,0.75,2,0.91c-0.08,0.59-0.87,0.43-1.46,0.55
		c0.31,0.48,1.1,0.45,1.04,1.44c0.22,0.68,1.59,0.33,1.06,1.93c-0.92-1.05-3.35-0.07-1.93,1.06c0.22,0.68,0.49-0.02,0.98-0.04
		c0.4,0.08,0.51,0.47,1,0.46c-0.34,1.49-1.69,2.13-3.35,2.59c0.38-0.5,0.45-1.2,0.42-1.98c-0.48,0.31-0.45,1.1-1.34,1.03
		c-0.08,0.4,0.11,0.39,0.41,0.38c-0.17,0.79-0.39,0.01-0.98,0.04c-6.16,1.31-11.59,0.82-16.58,1.7l-1.46,0.55
		c-0.39,0.11-0.48,0.41-0.47,0.51c-0.59,0.12-0.31-0.38-0.51-0.47c-0.2-0.09-0.58,0.41-0.97,0.53c-0.69,0.03-1.38-0.05-1.97,0.07
		c-0.68,0.12-0.77,0.42-1.46,0.45c-1.37,0.25-2.26,0.18-3.42,0.62c-0.19,0.11-0.89,0.03-0.89,0.03c-0.94,1.22-5.79,0.61-8.3,1.88
		c0.73,1.15-0.74,1.31-0.91,1.9c-0.18,0.4,0.24,1.17,0.06,1.57c-0.09,0.1-0.99-0.16-1.08,0.04c-0.18,0.5,0.35,1.37,0.07,1.97
		c0.01,0.2-0.78,0.23-0.87,0.52c-0.27,0.6,0.56,1.85-1.42,1.43c0.12,0.68,4.17,0.83,2.38,0.41c1.03-1.42,2.68,0.59,3.48,0.95
		c0.16-0.89-0.33-0.97-0.92-1.05c0.34-1.49,1.58,0.24,1.99,0.42c1.18-0.14-0.64-1.26-1.14-1.44c0.07-0.89,2,0.81,2.03-0.96
		c1.09,0.16-0.66,0.71,0.44,1.36c0.29-0.21,2.43-0.78,1.04-1.02c0.17-0.7,0.4,0.08,0.98-0.04c-0.08,0.4-0.47,0.51-0.46,1
		c1.18,0.06,0.96-0.72,1.67-0.16c-0.92-1.05,0.86-0.82,2.13-0.96c0.16-0.89-0.43-0.87-0.41-0.38c-0.59,0.12-0.23-0.98-0.04-1.08
		c0.78-0.32,2.01,1.01,3.86,0.45c-0.12-0.59-0.9-0.46-1.5-0.54c0.17-0.6,1.17-0.44,1.95-0.56c-0.72,1.9,2.17,0.02,1.55,1.91
		c0.98-0.23,1.24-1.03,2.43-0.98c-0.17-1.96-1.75,0.56-1.53-1.52c0.9,0.26,2.07,0.12,2.02,1.5c0.48-0.31,0.64-1.4,0.96-0.63
		c1.08-0.24-0.62-0.67,0.44-1.4c0.69,0.07,0.96,1.94,0.98-0.04c0.49-0.02,0.42,0.77,0.54,1.36c0.59-0.12,1.15-0.83,0.46-1
		c0.35-1.1,2.75-0.3,3.92-0.54c-0.18,0.6-0.86,0.82-0.93,1.41c1.06-0.53,2.33-0.87,3.39-1.5c1.4,0.44,3.27,0.47,3.53,2.33
		c0.57-0.61,0.96-0.53,0.9,0.36c0.76-0.72,2.86-0.01,3.01,1.37c0.4,0.18,1.07-0.24,1.47-0.05c0.2,0.09-0.07,0.89,0.04,1.08
		c0.3,0.19,1.19,0.15,1.49,0.34c0.31,0.29,0.33,0.97,1.02,0.95c0.13,0.88-0.4,2.48,1.06,1.93c0.03,0.69,0.05,1.38-0.44,1.49
		c-0.08,0.49,1.01,0.75,1.02,0.95c0.11,0.29-1.41,1.73,0.55,1.46c0.04,0.98-1.35,0.64-0.91,2c-1.19-0.25-3.04,0.41-4.43,0.16
		l-0.02-0.59c-2.76,0-7.15,0.96-9.74,0.36c-0.2,0.01-0.7-0.27-0.61-0.37c-0.78,0.23-0.14,1.48-1.83,1.05
		c0.28-0.41,0.46-0.81,0.34-1.49c-0.59,0.02-0.44,1.3-0.83,1.51c-0.58,0.22-2.48-0.5-2.95,0.11c-0.76,0.72-1.78-0.13-2.44,0.58
		c-0.57,0.61-0.98,0.23-1.95,0.56l-1.46,0.55c-0.1,0-0.76,0.62-0.96,0.53l-0.02-0.49c-0.2,0.01-1.07,0.33-1.46,0.55
		c-0.48,0.21-0.78,0.33-1.46,0.45c-0.48,0.21-2.93,0.7-4.29,1.24c-0.29,0.11-1.07,0.24-1.56,0.55l-0.85,1.02
		c-1.07,0.43-2.74,0.4-3.9,1.03c-0.29,0.21-0.75,1.01-1.04,1.12c-0.68,0.32-1.76,0.26-2.34,0.58c-0.68,0.22-1.36,0.64-1.93,0.96
		l-0.94,1.12c-0.2,0.01-0.89-0.17-0.98,0.04c-0.37,0.51-0.68,0.32-1.46,0.55c-1.37,0.25-2.41,1.47-2.9,1.49
		c-0.98,0.04-1.29-0.15-1.99-0.42l-1.39-0.34c-0.5-0.28-0.63-1.16-1.04-1.54c-0.5-0.18-1.19-0.15-1.59-0.43
		c-0.2-0.09,0.08-0.4-0.41-0.48c-0.49,0.02-0.92-1.05-1.04-1.34c-0.73-1.16-1.94-2-2.08-2.88c0.08-0.59-0.9-0.26-1-0.46
		c-0.51-0.57,0.01-2.46-1.17-2.42c0.28-0.5,0.56-0.81,0.54-1.5c1.69,0.43,2.05-0.37,2.91,1.37c0.59-0.12,0.28-0.5-0.02-0.49
		c0.45-1.1,0.7-2.29,1.46-3.01c0.7,0.17-0.08,0.4,0.04,0.98c0.89,0.07,0.46-1,0.83-1.51c0.47-0.51,1.95-0.47,1.52-1.53
		c-0.12-0.59-1-0.36-1.59-0.43c0-2.66-2.09-3.17-2.09-5.83c1.68,0.04,0.6-2.48,2.27-2.55l-0.09-2.46c0.6,0.27,1.11,0.65,1.14,1.53
		c1.08-0.24-0.17-1.87-0.57-2.05c0.37-0.61,0.55-1.2,0.4-2.38c0.26-0.99,0.5,0.28,0.53,0.97c0.85-0.92,0.9,0.26,1.85-0.56
		c-0.02-0.59-0.5-0.28-0.49,0.02c-0.8-0.37-0.13-0.98-0.06-1.57c-0.12-0.69-0.58,0.32-1.38,0.05c0.36-1,0.61-2.09,1.27-2.9
		c2.49,0.7,1.84-0.86,3.93-0.15c-0.21-0.39-0.52-0.77-0.55-1.46c1.74,1.71,0.77-3.28,1.42-1.53c1.36-0.54-0.74-1.25,0.42-1.98
		c0.79,0.17,0.45,1.56,2,0.91c0.62-1.89-2.27-0.02-1.55-1.91c-0.77,0.52-0.71,2.19-1.93,1.06c-0.19,0.11-0.63,1.5,0.07,1.97
		c-0.38,0.51-1.17,0.34-2.83,0.6c-0.12-0.49,0.08-0.5,0.47-0.51l-0.04-0.98c0.39-0.01,0.32,0.58,0.43,0.97
		c1.46-0.35-0.43-1.07-0.07-1.97c0.5,0.18,0.9,0.36,1.02,0.95c1.06-0.63-0.55-1.65-0.09-2.46c0.28-0.4,0.61,0.47,0.51,0.47
		c0.49-0.02,0.44-1.39,1.44-1.04c-1.25,0.93,0.85,1.64,0.49-0.02c0.51,0.38,0.82,0.86,1.04,1.44c1.06-0.73-0.48-2.25-0.14-3.93
		c0-0.1,0.89,0.06,0.98-0.04c-0.35-1.46-1.06,0.53-1.97,0.07c-0.25,1.09,1.53,1.52-0.44,1.49c-0.64-1.45,0.83-1.61,0.91-2
		c0.17-0.7-0.81-0.66-0.07-1.97c1.12,0.94,2.23,1.79,1.61,3.49c0.47-0.51,0.65-1.01,0.93-1.61c1.39,0.34,0.85-1.02,1.42-1.43
		c0.4,0.18,0.81,0.46,1.49,0.34c-0.41-0.38-1.01-0.65-1.51-0.93c-0.12-0.49,0.78-0.23,0.97-0.53c0.09-0.3-0.34-1.17-0.05-1.47
		s1.27-0.15,1.46-0.45c-0.41-0.48-0.63-1.16-0.57-2.05c-0.87,0.43-0.24,1.58-1.46,0.55c0.65,1.55,0.47,1.95-0.38,2.97
		c-0.49,0.02-0.42-0.57-0.53-0.96c-0.88,0.23-1.15,0.93-0.91,2c-0.41-0.28-0.9-0.46-0.98,0.04c-0.88,0.13-0.07-1.87,0.93-1.51
		c-1.22-1.04,0.75-0.91,0.4-2.48c0.9,0.36,0.13,0.98,0.06,1.57c1.47-0.15,0.63-1.7,0.89-2.49c0.09-0.3,0.95-0.92,0.95-1.02
		c0.08-0.5-0.14-1.08-0.06-1.57c0.58-0.42,1.49,0.44,1.49,0.44c0.1,0,0.56-0.81,0.36-0.9c0.6,0.17,0.43,0.87,1.12,0.85
		c0.59-0.02,0.18-0.5-0.02-0.49c-0.12-0.59,0.68-0.12,0.97-0.43c0.37-0.6-0.26-1.67,0.42-2.08c-1.08-0.06-0.86,0.82-0.93,1.61
		c-0.98,0.23-1.29-0.35-1.98-0.42l0.04,0.98c-1.68-0.13,0.35-1.29,0.34-1.49c0.46-1-0.1-2.75,1.52-1.53
		c-0.31-0.38-0.52-0.77-0.55-1.46c0,0.1,2.21,1.2,1.49,0.44c0,0-0.79-0.17-0.51-0.47c0.57-0.51,0.18-0.4-0.51-0.47
		c0.08-0.4,0.47-0.51,0.46-1c-0.22-0.58-1.2-0.55-1.51-0.93c-0.11-0.19,0.07-0.89-0.04-0.98l-0.59,0.02
		c-0.23-0.98-0.29-2.45-0.11-2.95c0.18-0.5-0.12-0.49-0.41-0.48c-0.02-0.49,0.58-0.42,0.97-0.53l0.04,0.98
		c0.87-0.52,1.32-1.62,2.34-0.58c0.08-0.4-0.12-0.49-0.41-0.48c-0.03-0.89,1.08-0.14,0.88-0.03c0.68-0.22,0.08-0.59,0.55-1.01
		c0.28-0.3,1.08-0.24,1.46-0.54c0.57-0.51,0.84-1.31,1.91-1.55c-0.41-0.38-0.63-1.06-0.56-1.85c0,0,1.57-0.16,0.43-1.59
		c1.17-0.24,1.78,0.13,1.43,1.52c0.89,0.07,0.87-0.52,1.56-0.55c1.16-0.73,1.54,1.81,1.89,0.42c0.58-0.22,0.72,0.76,1.02,0.85
		c1.2,0.35,2.92-0.9,3.46,0.37c0.49-0.02,0.37-0.6,0.46-1c0.77-0.42,1.39,0.44,1.49,0.44c0.99,0.06,2.51-1.47,2.41-1.47
		c0.88-0.13-0.26,0.8,0.03,0.89c0.4,0.28,2.81-1.19,2.99,0.87c1.18-0.14-0.64-1.26-1.03-1.34c0.33-1.88,1.78,0.13,1.49,0.34
		c0.49-0.12,0.44-1.39,1.44-0.94c0.02,0.59-0.05,1.28,0.54,1.36c0.67-0.42-0.22-0.78,0.42-1.98c0.41,0.38,1.41,0.74,1.38-0.05
		c0.8,0.36,0.53,0.96,0.05,1.48c0.28-0.41,1.36-0.45,1.03-1.52c0.78-0.23,2.87,0.48,2.93-0.6c1.39,0.34-0.55,1.1,0.07,1.97
		c0.58-0.32,0.85-1.02,0.91-2c0.86-0.62,0.82,0.96,0.93,1.05c0.59,0.08,0.75-1.11,1.44-0.94c-0.2-0.09-0.3-0.19-0.21-0.39l0.31,0.38
		l-0.1,0c0,0,0.1,0,0.1,0.09c0.3,0.29,0.52,0.67,1.2,0.45c-0.01-0.2-0.11-0.29-0.21-0.39l-0.29,0.01l0-0.1l-0.1,0
		c0.09-0.2,0.09-0.3,0.19-0.3c0-0.1-0.01-0.29,0.08-0.5c0.99,0.06,1.69,0.43,2.39,0.8c0.3-0.01,0.69-0.03,0.89,0.07l-0.69,0.03
		c0.3,0.19,0.7,0.37,1.1,0.45c0,0.1,0.11,0.29,0.11,0.39C579.26,117.58,579.36,117.38,579.25,117.19z M523.08,177.66
		c-0.07,0.89,0.34,1.27,0.94,1.44C524.09,178.22,523.68,177.84,523.08,177.66z M526.52,166.8c0.43-1.79-2.2-1-1.97,0.07
		C525.93,166.82,525.6,165.95,526.52,166.8z M526.14,167.21c-0.88,0.13-1.77,0.07-1.54,1.04
		C525.49,168.22,525.87,167.91,526.14,167.21z M524.88,175.63c-0.34,1.59,0.84,1.54,1.65,1.91
		C526.57,176.25,525.68,176.09,524.88,175.63z M528.75,157.86c-0.78,0.13-0.55,1.1-1.03,1.42
		C528.61,159.34,528.89,158.83,528.75,157.86c0.29-0.11,0.48-0.41,0.36-1c0.59-0.02,1.27-0.34,0.47-0.61
		c-0.84,1.31-2.59-0.89-2.91,1.19C527.4,158.59,528.21,156.5,528.75,157.86z M529.27,161.28c0.71,0.66,2.49,0.7,2.44-0.58
		C531.03,160.92,529.13,160.21,529.27,161.28z M532.04,156.16c-0.01-0.2-0.41-0.48-0.49,0.02c0.53,1.06,2.47,0.11,0.97-0.43
		C532.53,156.04,532.43,156.24,532.04,156.16z M532.92,153.27c0.37-0.7,1.87-0.07,1.93-1.05c-1.09-0.16-1.87,0.17-2.44,0.58
		c0.75,1.65-0.5,2.38,1.07,2.42C533.55,154.33,532.85,154.16,532.92,153.27z M534.1,145.35l-0.03-0.89l0.98-0.04l0.03,0.89
		L534.1,145.35z M538.79,138.87c0.1,0-0.45-1.46-0.53-0.97c-0.27,0.7,0.87,2.33,0.97,2.33c-0.26-1.67,0.74-1.21,0.5-2.38
		C539.38,136.39,539.38,139.05,538.79,138.87z M541.21,137.8c-0.17,0.6,0.27,1.86,0.53,0.96
		C541.81,138.07,541.37,136.81,541.21,137.8z M556.72,120.48c0-0.1,1.68,0.23,1.49,0.44C559.35,119.79,556.5,119.8,556.72,120.48z
		 M566.47,120.61c0.67-0.42-0.04-0.98,0.42-1.98c-0.38,0.41-0.76,0.82-0.85,1.02C566.16,120.04,566.46,120.12,566.47,120.61z
		 M574.31,116.68l0-0.1l0.7,0.17c-0.09,0.1-0.19,0.11-0.29,0.11C574.51,116.77,574.41,116.68,574.31,116.68z M576.28,116.81
		c0.1,0.09,0.11,0.29,0.21,0.29c0,0,0.39-0.11,0.68-0.32L576.28,116.81z M580.74,130.92l-3.44,0.13c0.09-0.1,0.19-0.11,0.29-0.11
		c0.59-0.02,1.18-0.04,1.87-0.17c0.4,0.08,0.79,0.07,1.08,0.06C580.64,130.92,580.64,130.92,580.74,130.92z M579.25,117.19
		l-0.39,0.01c-0.11-0.19-0.21-0.39-0.41-0.48l0.79-0.03l-0.29,0.31C579.05,117,579.15,117.09,579.25,117.19z M581.6,116.71l0-0.1
		l-0.01-0.2c0.39-0.01,0.78-0.13,0.88-0.13l0.01,0.3C582.18,116.49,581.88,116.5,581.6,116.71z M582.61,130.85
		c-0.19,0.11-0.29,0.11-0.29,0.01L582.61,130.85z M582.47,116.28c0-0.1,0.1-0.1,0.09-0.2C582.66,116.18,582.66,116.18,582.47,116.28
		z M584.27,130.4c0.2,0.19,0.31,0.38,0.31,0.38l-1.97,0.07l0-0.1L584.27,130.4z M593.05,128.3c-0.14-1.08,1.76-0.26,2.44-0.58
		c-0.08,0.59,0.13,0.88,0.52,0.87c-0.24,1.58-1.9,1.84-3.88,1.72c0.63-1.6,0.97-0.33,2.42-1.07
		C594.15,128.75,593.66,128.57,593.05,128.3z"/>
</g>
</svg>
